<?xml version="1.0" standalone="no"?>
<!DOCTYPE svg PUBLIC "-//W3C//DTD SVG 20010904//EN"
 "http://www.w3.org/TR/2001/REC-SVG-20010904/DTD/svg10.dtd">
<svg version="1.0" xmlns="http://www.w3.org/2000/svg"
 width="1024.000000pt" height="1024.000000pt" viewBox="0 0 1024.000000 1024.000000"
 preserveAspectRatio="xMidYMid meet">

<g transform="translate(0.000000,1024.000000) scale(0.100000,-0.100000)"
fill="#000000" stroke="none">
<path d="M4740 9589 c-163 -11 -390 -35 -565 -60 -279 -40 -690 -130 -739
-162 -58 -38 -71 -150 -23 -194 51 -47 96 -54 181 -28 169 51 587 126 871 155
445 46 847 47 1265 5 1509 -154 2595 -764 3225 -1810 91 -150 193 -358 262
-530 45 -115 47 -124 48 -220 0 -82 -4 -108 -22 -147 -32 -71 -103 -141 -176
-174 l-62 -29 -3890 0 -3890 0 -63 34 c-71 39 -129 98 -163 169 -20 39 -24 63
-24 142 0 90 2 101 49 220 290 742 798 1338 1481 1740 86 50 361 190 472 238
42 19 56 31 72 66 12 23 21 52 21 64 0 30 -33 81 -67 103 -58 39 -121 21 -391
-115 -571 -286 -1058 -702 -1409 -1204 -191 -273 -359 -600 -463 -902 -29 -84
-33 -107 -34 -205 0 -95 4 -121 28 -190 35 -101 74 -165 143 -236 l54 -56 -88
-89 c-67 -67 -99 -109 -130 -169 -68 -132 -83 -202 -83 -395 0 -198 12 -258
77 -389 38 -77 62 -110 127 -175 93 -93 167 -140 281 -178 l80 -27 0 -392 0
-391 -65 -23 c-228 -77 -383 -229 -468 -457 -26 -71 -27 -79 -27 -288 l0 -215
35 -90 c46 -118 94 -188 190 -278 83 -78 199 -145 291 -167 l46 -12 6 -166
c12 -416 160 -769 442 -1061 347 -358 846 -585 1430 -651 58 -6 796 -10 2045
-10 1671 0 1974 2 2083 15 313 37 596 122 877 265 505 258 828 661 930 1160
23 113 42 333 36 402 l-5 44 51 14 c74 19 194 82 264 139 108 88 201 234 240
376 22 82 30 283 14 386 -42 292 -230 512 -510 598 l-55 17 0 394 0 394 50 12
c27 7 88 32 135 55 67 33 102 60 170 128 171 172 229 338 217 616 -11 234 -63
361 -213 513 l-92 93 42 42 c115 115 186 285 186 443 0 126 -74 338 -221 634
-417 839 -1117 1469 -2039 1833 -539 213 -1101 331 -1795 377 -173 11 -563 11
-745 -1z m4040 -4909 l0 -150 -1327 -1 c-1002 0 -1337 -3 -1363 -12 -68 -24
-101 -118 -65 -187 33 -64 -58 -60 1415 -60 l1340 0 0 -297 c0 -186 -4 -313
-11 -338 -14 -50 -84 -120 -136 -134 -91 -26 -138 -12 -254 71 -138 99 -244
132 -424 131 -210 -1 -324 -46 -541 -209 -140 -105 -199 -137 -289 -153 -177
-33 -327 10 -488 138 -187 149 -296 200 -478 222 -117 14 -247 0 -356 -39
-100 -35 -147 -63 -286 -169 -62 -46 -133 -96 -159 -109 -138 -70 -338 -70
-476 0 -27 14 -84 52 -128 86 -106 81 -181 133 -229 158 -172 87 -418 102
-615 36 -96 -32 -139 -57 -283 -166 -107 -81 -222 -148 -255 -148 -11 0 -12
75 -10 393 3 415 3 411 52 465 54 60 -16 57 1123 62 l1043 5 32 33 c29 29 33
39 33 86 0 44 -5 60 -25 81 -52 57 -6 55 -1087 55 -643 0 -1021 -4 -1062 -11
-178 -28 -327 -175 -360 -353 -7 -40 -11 -341 -11 -911 l0 -851 -26 -52 c-49
-99 -135 -147 -248 -140 -39 3 -84 12 -101 21 -42 22 -93 74 -118 121 -22 41
-22 41 -27 941 l-5 900 -36 76 c-42 87 -109 160 -187 202 -93 50 -152 57 -539
57 l-353 0 0 150 0 150 3660 0 3660 0 0 -150z m-6551 -440 c30 -17 52 -40 68
-69 22 -42 23 -54 23 -251 l0 -208 -87 -7 c-48 -4 -112 -13 -142 -21 -75 -19
-189 -76 -251 -125 -28 -22 -67 -47 -85 -55 -76 -31 -180 -8 -237 52 -56 60
-58 76 -58 409 l0 306 363 -3 362 -3 44 -25z m91 -1788 c0 -235 179 -447 422
-498 223 -48 466 72 568 279 32 65 60 176 60 240 l0 37 2706 0 2707 0 -6 -142
c-14 -328 -124 -610 -329 -845 -268 -307 -745 -535 -1263 -605 -144 -19 -3993
-19 -4135 0 -496 67 -951 281 -1230 579 -228 244 -343 527 -357 876 l-6 137
432 0 431 0 0 -58z"/>
<path d="M5053 8590 c-56 -34 -63 -61 -63 -235 0 -171 7 -197 57 -230 60 -40
156 -16 189 46 10 21 14 68 14 186 0 141 -2 162 -20 191 -36 59 -118 78 -177
42z"/>
<path d="M3984 8589 c-46 -13 -68 -40 -139 -170 -75 -138 -82 -162 -59 -217
30 -78 126 -107 194 -59 48 33 169 257 170 315 1 92 -80 155 -166 131z"/>
<path d="M6149 8575 c-59 -32 -80 -102 -51 -168 32 -71 128 -230 156 -256 36
-34 110 -39 154 -11 36 22 62 72 62 118 0 41 -140 281 -180 310 -38 26 -101
29 -141 7z"/>
</g>
</svg>
