<?xml version="1.0" encoding="utf-8"?>
<!-- Generator: Adobe Illustrator 16.0.0, SVG Export Plug-In . SVG Version: 6.00 Build 0)  -->
<!DOCTYPE svg PUBLIC "-//W3C//DTD SVG 1.1//EN" "http://www.w3.org/Graphics/SVG/1.1/DTD/svg11.dtd">
<svg version="1.1" id="Layer_1" xmlns="http://www.w3.org/2000/svg" xmlns:xlink="http://www.w3.org/1999/xlink" x="0px" y="0px"
	 width="231px" height="171.5px" viewBox="0 0 231 171.5" enable-background="new 0 0 231 171.5" xml:space="preserve">
<g>
	<g>
		
			<ellipse transform="matrix(-0.3016 -0.9534 0.9534 -0.3016 -95.5471 215.2353)" fill="#3F90CE" cx="31.058" cy="142.612" rx="9.717" ry="6.898"/>
	</g>
	<g opacity="0.2">
		<path fill="#3E2771" d="M29.906,145.701c-1.594-5.04-0.033-10.04,3.485-11.287c-1.661-1.168-3.533-1.614-5.264-1.066
			c-3.633,1.149-5.265,6.229-3.646,11.345c1.619,5.117,5.875,8.334,9.508,7.185c0.055-0.018,0.107-0.038,0.162-0.058
			C32.324,150.536,30.753,148.38,29.906,145.701z"/>
	</g>
	<g>
		<path fill="#3E2771" d="M32.457,153.275c-1.57,0-3.181-0.582-4.678-1.713c-1.986-1.501-3.551-3.816-4.406-6.519
			c-1.81-5.721,0.167-11.464,4.404-12.805l0,0c4.238-1.34,9.158,2.223,10.967,7.942s-0.167,11.464-4.404,12.804
			C33.725,153.18,33.094,153.275,32.457,153.275z M28.478,134.456c-3.015,0.953-4.311,5.389-2.888,9.886
			c0.71,2.247,1.986,4.152,3.59,5.365c1.487,1.124,3.069,1.5,4.458,1.062c3.016-0.954,4.311-5.389,2.889-9.886
			C35.103,136.385,31.494,133.503,28.478,134.456L28.478,134.456z"/>
	</g>
	<g>
		<path fill="#FFFFFF" d="M29.475,138.923c-0.227-0.172-0.429-0.383-0.597-0.632c-0.829-1.227-0.506-2.894,0.721-3.723
			c6.088-4.112,10.358-10.907,11.421-18.178c0.214-1.465,1.576-2.479,3.041-2.265c1.465,0.214,2.479,1.575,2.265,3.04
			c-1.278,8.737-6.409,16.903-13.726,21.846C31.622,139.673,30.364,139.602,29.475,138.923z"/>
	</g>
	<g opacity="0.2">
		<path fill="#3E2771" d="M31.354,135.909c6.088-4.112,10.358-10.908,11.422-18.179c0.214-1.464,1.575-2.479,3.04-2.264
			c0.073,0.011,0.145,0.025,0.215,0.042c-0.389-0.72-1.098-1.256-1.97-1.383c-1.465-0.215-2.826,0.8-3.041,2.265
			c-1.063,7.271-5.333,14.065-11.421,18.178c-1.227,0.829-1.55,2.496-0.721,3.723c0.168,0.249,0.37,0.46,0.597,0.632
			c0.304,0.231,0.651,0.387,1.015,0.472C29.849,138.198,30.205,136.686,31.354,135.909z"/>
	</g>
	<g>
		<path fill="#3E2771" d="M31.099,140.635c-0.822,0-1.643-0.264-2.329-0.787c-0.332-0.253-0.62-0.558-0.855-0.906
			c-1.186-1.756-0.723-4.149,1.033-5.336c5.822-3.933,9.905-10.431,10.922-17.383c0.148-1.016,0.684-1.913,1.507-2.526
			s1.835-0.869,2.852-0.721c1.016,0.148,1.913,0.684,2.526,1.507c0.614,0.824,0.87,1.837,0.721,2.854
			c-1.324,9.054-6.642,17.517-14.225,22.639C32.599,140.415,31.848,140.635,31.099,140.635z M43.67,115.26
			c-0.324,0-0.639,0.104-0.904,0.302c-0.325,0.241-0.536,0.596-0.595,0.997c-1.11,7.588-5.566,14.682-11.921,18.974
			c-0.693,0.469-0.877,1.415-0.408,2.108c0.093,0.138,0.207,0.259,0.337,0.358h0c0.518,0.395,1.229,0.414,1.77,0.049
			c7.05-4.762,11.994-12.631,13.226-21.05c0.059-0.401-0.042-0.802-0.284-1.126c-0.242-0.326-0.597-0.537-0.998-0.596
			C43.819,115.266,43.744,115.26,43.67,115.26z"/>
	</g>
	<g>
		
			<ellipse transform="matrix(-0.3016 -0.9534 0.9534 -0.3016 -43.6096 255.9597)" fill="#3F90CE" cx="71.942" cy="143.952" rx="9.717" ry="6.898"/>
	</g>
	<g opacity="0.2">
		<path fill="#3E2771" d="M70.984,149.133c-1.618-5.117,0.014-10.195,3.646-11.345c0.515-0.163,1.043-0.235,1.574-0.229
			c-2.016-2.436-4.746-3.645-7.193-2.871c-3.632,1.149-5.265,6.229-3.646,11.346c1.389,4.392,4.721,7.38,7.934,7.413
			C72.322,152.268,71.513,150.802,70.984,149.133z"/>
	</g>
	<g>
		<path fill="#3E2771" d="M73.383,154.608c-3.735,0-7.575-3.319-9.126-8.225c-1.81-5.72,0.166-11.464,4.404-12.804
			c4.238-1.341,9.157,2.223,10.966,7.941c1.81,5.72-0.166,11.464-4.403,12.805C74.62,154.517,74.003,154.608,73.383,154.608z
			 M70.554,135.614c-0.403,0-0.802,0.059-1.191,0.183c-3.016,0.953-4.312,5.388-2.889,9.886c1.423,4.497,5.034,7.381,8.048,6.427
			c3.016-0.954,4.312-5.39,2.889-9.886C76.172,138.306,73.273,135.614,70.554,135.614z"/>
	</g>
	<g>
		<path fill="#FFFFFF" d="M70.359,140.264c-0.226-0.173-0.428-0.384-0.596-0.632c-0.829-1.228-0.506-2.895,0.721-3.723
			c6.088-4.112,10.358-10.908,11.421-18.179c0.215-1.464,1.576-2.479,3.041-2.264c1.464,0.214,2.479,1.575,2.264,3.04
			c-1.277,8.736-6.408,16.902-13.726,21.846C72.507,141.014,71.249,140.941,70.359,140.264z"/>
	</g>
	<g opacity="0.2">
		<path fill="#3E2771" d="M72.228,137.864c6.089-4.112,10.358-10.907,11.422-18.178c0.214-1.465,1.575-2.479,3.04-2.265
			c0.168,0.024,0.329,0.066,0.483,0.119c-0.233-1.057-1.094-1.908-2.227-2.074c-1.465-0.215-2.826,0.8-3.041,2.264
			c-1.063,7.271-5.333,14.066-11.421,18.179c-1.227,0.828-1.55,2.495-0.721,3.723c0.168,0.248,0.37,0.459,0.596,0.632
			c0.23,0.175,0.485,0.308,0.753,0.399C70.883,139.621,71.29,138.499,72.228,137.864z"/>
	</g>
	<g>
		<path fill="#3E2771" d="M71.984,141.975c-0.822,0-1.643-0.263-2.329-0.786c-0.332-0.253-0.62-0.559-0.855-0.906
			c-1.186-1.756-0.723-4.15,1.034-5.337c5.822-3.932,9.905-10.43,10.922-17.383c0.148-1.016,0.684-1.912,1.508-2.525
			c0.822-0.614,1.836-0.869,2.852-0.721s1.912,0.684,2.525,1.507s0.869,1.836,0.721,2.853c-1.324,9.054-6.643,17.518-14.225,22.64
			C73.484,141.756,72.733,141.975,71.984,141.975z M84.555,116.601c-0.325,0-0.64,0.104-0.903,0.301
			c-0.326,0.242-0.537,0.597-0.596,0.998c-1.109,7.588-5.566,14.682-11.921,18.973c-0.693,0.47-0.876,1.415-0.408,2.108
			c0.094,0.138,0.207,0.259,0.337,0.358l0,0c0.519,0.395,1.23,0.415,1.771,0.05c7.05-4.762,11.995-12.632,13.226-21.05
			c0.059-0.401-0.042-0.802-0.284-1.126c-0.242-0.326-0.597-0.537-0.998-0.596C84.703,116.606,84.628,116.601,84.555,116.601z"/>
	</g>
	<g>
		
			<ellipse transform="matrix(0.6781 -0.735 0.735 0.6781 -50.8955 181.042)" fill="#3F90CE" cx="181.229" cy="148.623" rx="9.717" ry="6.898"/>
	</g>
	<g opacity="0.2">
		<path fill="#3E2771" d="M187.818,141.481c-0.834-0.769-1.885-1.204-3.041-1.342c1.787,2.789,0.893,7.34-2.334,10.836
			c-2.557,2.77-5.889,4.132-8.617,3.807c0.229,0.356,0.496,0.689,0.814,0.982c2.799,2.584,8.02,1.48,11.658-2.464
			C189.939,149.356,190.619,144.065,187.818,141.481z"/>
	</g>
	<g>
		<path fill="#3E2771" d="M178.47,158.327c-1.803,0-3.4-0.583-4.619-1.708c-3.266-3.014-2.613-9.053,1.453-13.462
			c4.068-4.409,10.035-5.545,13.303-2.53c1.639,1.513,2.355,3.786,2.02,6.402c-0.316,2.47-1.551,4.977-3.473,7.061
			c-1.924,2.082-4.324,3.514-6.76,4.028C179.734,158.258,179.089,158.327,178.47,158.327z M183.955,141.231
			c-2.225,0-4.857,1.244-6.941,3.502c-3.197,3.467-3.91,8.032-1.586,10.177c1.07,0.986,2.662,1.318,4.486,0.933
			c1.969-0.415,3.934-1.599,5.531-3.33c1.598-1.732,2.619-3.785,2.875-5.78c0.238-1.848-0.219-3.41-1.289-4.396
			C186.22,141.589,185.146,141.231,183.955,141.231z"/>
	</g>
	<g>
		<path fill="#FFFFFF" d="M184.228,145.956c0.279-0.061,0.553-0.166,0.811-0.318c1.27-0.759,1.688-2.404,0.928-3.677
			c-3.764-6.31-4.74-14.275-2.615-21.309c0.43-1.417-0.373-2.913-1.789-3.342c-1.418-0.428-2.914,0.373-3.344,1.79
			c-2.555,8.452-1.379,18.024,3.145,25.608C181.966,145.722,183.136,146.191,184.228,145.956z"/>
	</g>
	<g opacity="0.2">
		<path fill="#3E2771" d="M185.966,141.961c-3.764-6.31-4.74-14.275-2.615-21.309c0.43-1.417-0.373-2.913-1.789-3.342
			c-1.188-0.358-2.428,0.147-3.051,1.154c0.191,0.014,0.385,0.047,0.578,0.105c1.418,0.429,2.219,1.925,1.791,3.342
			c-2.127,7.033-1.15,14.999,2.613,21.309c0.531,0.889,0.486,1.96-0.023,2.784c0.252,0.019,0.508,0.006,0.758-0.049
			c0.279-0.061,0.553-0.166,0.811-0.318C186.308,144.879,186.726,143.233,185.966,141.961z"/>
	</g>
	<g>
		<path fill="#3E2771" d="M183.664,147.179c-1.334,0-2.596-0.695-3.301-1.875c-4.688-7.858-5.904-17.78-3.256-26.539
			c0.297-0.982,0.959-1.791,1.863-2.275c0.904-0.485,1.945-0.588,2.928-0.291s1.791,0.959,2.275,1.864
			c0.484,0.904,0.588,1.944,0.291,2.927c-2.033,6.726-1.1,14.343,2.5,20.377c1.086,1.82,0.488,4.184-1.332,5.27
			c-0.359,0.215-0.75,0.369-1.158,0.457l0,0C184.205,147.151,183.931,147.179,183.664,147.179z M180.783,118.358
			c-0.246,0-0.49,0.061-0.715,0.181c-0.357,0.19-0.617,0.51-0.734,0.898c-2.463,8.145-1.332,17.369,3.027,24.676
			c0.334,0.56,0.986,0.843,1.623,0.707l0,0c0.162-0.035,0.314-0.096,0.459-0.182c0.719-0.429,0.955-1.363,0.525-2.081
			c-3.93-6.586-4.949-14.9-2.73-22.242c0.117-0.388,0.076-0.798-0.113-1.155c-0.193-0.357-0.512-0.619-0.9-0.736
			C181.08,118.38,180.931,118.358,180.783,118.358z"/>
	</g>
	<g>
		
			<ellipse transform="matrix(0.6379 -0.7701 0.7701 0.6379 -54.7766 169.6707)" fill="#3F90CE" cx="153.052" cy="143.089" rx="9.718" ry="6.898"/>
	</g>
	<g opacity="0.2">
		<path fill="#3E2771" d="M159.251,135.605c-0.795-0.658-1.754-1.034-2.795-1.154c1.773,2.712,1.084,7.18-1.881,10.761
			c-2.496,3.014-5.912,4.562-8.717,4.238c0.275,0.418,0.604,0.798,0.994,1.122c2.936,2.431,8.088,1.051,11.512-3.083
			C161.789,143.356,162.185,138.035,159.251,135.605z"/>
	</g>
	<g>
		<path fill="#3E2771" d="M150.369,152.917c-1.59,0-3.072-0.467-4.256-1.448c-1.719-1.423-2.555-3.654-2.359-6.285
			c0.186-2.483,1.283-5.053,3.092-7.236c3.826-4.619,9.723-6.071,13.146-3.237l0,0c1.717,1.423,2.555,3.654,2.359,6.286
			c-0.186,2.482-1.283,5.053-3.092,7.235C156.759,151.251,153.373,152.917,150.369,152.917z M155.689,135.555
			c-2.291,0-5.002,1.399-7.055,3.876c-1.502,1.815-2.412,3.92-2.563,5.926c-0.139,1.858,0.402,3.394,1.523,4.321
			c2.436,2.018,6.865,0.703,9.873-2.93c1.504-1.815,2.414-3.919,2.564-5.926c0.137-1.858-0.404-3.393-1.523-4.32
			C157.734,135.859,156.757,135.555,155.689,135.555z"/>
	</g>
	<g>
		<path fill="#FFFFFF" d="M155.906,140.266c0.273-0.074,0.541-0.194,0.789-0.362c1.23-0.824,1.557-2.49,0.732-3.72
			c-4.098-6.099-5.498-14.001-3.752-21.139c0.354-1.438-0.527-2.889-1.967-3.241c-1.438-0.352-2.889,0.528-3.24,1.967
			c-2.1,8.576-0.414,18.072,4.508,25.402C153.634,140.153,154.826,140.56,155.906,140.266z"/>
	</g>
	<g opacity="0.2">
		<path fill="#3E2771" d="M157.427,136.184c-4.098-6.099-5.498-14.001-3.752-21.139c0.354-1.438-0.527-2.889-1.967-3.241
			c-0.969-0.237-1.941,0.087-2.582,0.763c0.021,0.005,0.043,0.008,0.064,0.013c1.438,0.352,2.318,1.803,1.965,3.241
			c-1.746,7.137-0.344,15.039,3.752,21.139c0.713,1.061,0.564,2.445-0.279,3.335c0.418,0.091,0.855,0.086,1.277-0.028
			c0.273-0.074,0.541-0.194,0.789-0.362C157.925,139.079,158.251,137.413,157.427,136.184z"/>
	</g>
	<g>
		<path fill="#3E2771" d="M155.201,141.523c-1.26,0-2.463-0.621-3.189-1.703c-5.102-7.596-6.848-17.438-4.672-26.326
			c0.244-0.997,0.861-1.839,1.74-2.372c0.877-0.532,1.91-0.691,2.906-0.447c0.998,0.244,1.84,0.862,2.373,1.739
			c0.531,0.879,0.689,1.911,0.447,2.907c-1.672,6.825-0.33,14.382,3.586,20.215c1.182,1.759,0.711,4.151-1.049,5.333
			c-0.348,0.234-0.73,0.409-1.133,0.519C155.875,141.479,155.535,141.523,155.201,141.523z M151.07,112.889
			c-0.275,0-0.545,0.076-0.785,0.222c-0.346,0.21-0.592,0.542-0.688,0.936c-2.023,8.266-0.398,17.415,4.344,24.479
			c0.363,0.542,1.029,0.791,1.658,0.62l0,0c0.158-0.044,0.311-0.112,0.449-0.205c0.693-0.468,0.879-1.412,0.414-2.107
			c-4.275-6.366-5.74-14.613-3.916-22.063c0.098-0.394,0.033-0.802-0.176-1.148c-0.211-0.347-0.545-0.591-0.938-0.687
			C151.312,112.903,151.191,112.889,151.07,112.889z"/>
	</g>
	<g>
		<path fill="#904832" d="M24.01,101.85L24.01,101.85c0-3.146,2.55-5.697,5.696-5.697h70.066c3.146,0,5.697,2.551,5.697,5.697l0,0
			c0,3.146-2.551,5.695-5.697,5.695H29.707C26.561,107.545,24.01,104.995,24.01,101.85z"/>
	</g>
	<g>
		<path fill="#3E2771" d="M99.773,108.708H29.707c-3.782,0-6.858-3.077-6.858-6.858c0-3.783,3.076-6.859,6.858-6.859h70.066
			c3.783,0,6.859,3.076,6.859,6.859C106.632,105.631,103.556,108.708,99.773,108.708z M29.707,97.315
			c-2.5,0-4.534,2.033-4.534,4.534c0,2.499,2.034,4.533,4.534,4.533h70.066c2.5,0,4.535-2.034,4.535-4.533
			c0-2.501-2.035-4.534-4.535-4.534H29.707z"/>
	</g>
	<g>
		<path fill="#FAA430" d="M108.15,111.071c0,1.786-0.359,3.488-1.076,5.083c-3.77,8.403-17.501,13.926-41.57,13.926
			c-22.621,0-41.509-5.649-42.598-17.879c-0.034-0.372-0.05-0.748-0.05-1.13c0-2.835,2.53-5.167,7.352-5.237
			c0.074-0.003,0.15-0.003,0.228-0.003h70.135c4.617,0,7.201,2.04,7.539,4.641C108.136,110.669,108.15,110.87,108.15,111.071z"/>
	</g>
	<g opacity="0.6">
		<path fill="#FFFFFF" d="M108.15,111.071c0,1.786-0.359,3.488-1.076,5.083c-0.311-2.071-1.25-4.018-2.914-5.247
			c-1.783-1.317-4.092-1.639-6.297-1.826c-4.51-0.379-9.041-0.369-13.564-0.355c-16.636,0.044-33.273,0.084-49.91,0.127
			c-2.945,0.011-5.998,0.041-8.675,1.268c-1.052,0.482-2.03,1.206-2.808,2.081c-0.034-0.372-0.05-0.748-0.05-1.13
			c0-2.835,2.53-5.167,7.352-5.237c0.074-0.003,0.15-0.003,0.228-0.003h70.135c4.617,0,7.201,2.04,7.539,4.641
			C108.136,110.669,108.15,110.87,108.15,111.071z"/>
	</g>
	<g>
		<path fill="#3E2771" d="M65.504,131.243c-11.914,0-22.215-1.532-29.789-4.431c-8.585-3.285-13.415-8.302-13.967-14.509
			c-0.036-0.403-0.055-0.818-0.055-1.232c0-3.121,2.623-6.308,8.482-6.399c0.084-0.003,0.172-0.004,0.26-0.004h70.135
			c4.834,0,8.244,2.219,8.691,5.653c0.033,0.242,0.051,0.497,0.051,0.75c0,1.951-0.396,3.821-1.178,5.56
			C103.908,126.054,88.768,131.243,65.504,131.243z M30.391,106.993c-0.045,0-0.089,0-0.132,0.003c-0.012,0-0.023,0-0.035,0
			c-3.77,0.056-6.206,1.655-6.206,4.075c0,0.345,0.015,0.689,0.045,1.024c1.104,12.403,22.131,16.821,41.44,16.821
			c21.97,0,36.736-4.824,40.509-13.238c0.646-1.438,0.973-2.987,0.973-4.607c0-0.149-0.01-0.298-0.029-0.444
			c-0.291-2.244-2.738-3.634-6.387-3.634H30.435C30.42,106.993,30.406,106.993,30.391,106.993z"/>
	</g>
	<g>
		<path fill="#EE2F24" d="M102.667,95.755c0,4.825-6.303,8.735-14.073,8.735c-6.632,0-12.187-2.845-13.678-6.675
			c-0.258-0.66-0.396-1.35-0.396-2.061c0-4.825,6.299-8.735,14.073-8.735c6.862,0,12.579,3.05,13.821,7.083
			C102.58,94.64,102.667,95.188,102.667,95.755z"/>
	</g>
	<g>
		<path fill="#3E2771" d="M88.594,105.653c-6.991,0-13.062-3.05-14.761-7.416c-0.314-0.806-0.475-1.641-0.475-2.482
			c0-5.551,6.692-9.898,15.236-9.898c7.241,0,13.522,3.324,14.933,7.904c0.201,0.656,0.303,1.326,0.303,1.994
			C103.83,101.305,97.138,105.653,88.594,105.653z M88.594,88.182c-6.999,0-12.911,3.468-12.911,7.573
			c0,0.551,0.106,1.102,0.315,1.638c1.34,3.44,6.636,5.936,12.595,5.936c6.999,0,12.911-3.469,12.911-7.573
			c0-0.442-0.066-0.871-0.201-1.312C100.205,90.874,94.74,88.182,88.594,88.182z"/>
	</g>
	<g>
		<path fill="#EE2F24" d="M57.519,95.755c0,0.636-0.11,1.257-0.318,1.856c-1.371,3.934-7.01,6.879-13.755,6.879
			c-7.74,0-14.016-3.877-14.073-8.672v-0.063c0-4.825,6.299-8.735,14.073-8.735C51.216,87.02,57.519,90.93,57.519,95.755z"/>
	</g>
	<g>
		<path fill="#3E2771" d="M43.446,105.653c-8.478,0-15.17-4.314-15.236-9.82v-0.078c0-5.551,6.692-9.898,15.236-9.898
			c8.544,0,15.236,4.347,15.236,9.898c0,0.752-0.129,1.505-0.382,2.237C56.728,102.503,50.62,105.653,43.446,105.653z
			 M43.446,88.182c-6.998,0-12.911,3.468-12.911,7.573v0.063c0.048,4.064,5.961,7.51,12.911,7.51c6.103,0,11.426-2.565,12.657-6.1
			c0.168-0.484,0.253-0.981,0.253-1.474C56.356,91.649,50.444,88.182,43.446,88.182z"/>
	</g>
	<g opacity="0.2">
		<path fill="#3E2771" d="M102.416,94.103c-1.303,2.511-3.605,4.43-6.199,5.573c-2.639,1.163-5.568,1.562-8.453,1.518
			c-4.471-0.07-8.906-1.271-12.847-3.378c-0.258-0.66-0.396-1.35-0.396-2.061c0-4.825,6.299-8.735,14.073-8.735
			C95.457,87.02,101.173,90.069,102.416,94.103z"/>
	</g>
	<g opacity="0.2">
		<path fill="#3E2771" d="M57.519,95.755c0,0.636-0.11,1.257-0.318,1.856c-0.744,0.401-1.501,0.783-2.269,1.143
			c-3.475,1.618-7.255,2.718-11.088,2.657c-5.264-0.084-10.294-2.362-14.472-5.593v-0.063c0-4.825,6.299-8.735,14.073-8.735
			C51.216,87.02,57.519,90.93,57.519,95.755z"/>
	</g>
	<g>
		<g>
			<path fill="#FEBB12" d="M40.642,94.816c-6.139,2.521-12.348,4.832-18.61,6.923c-0.634,0.211-1.29,0.426-1.947,0.321
				c-0.127-0.02-0.255-0.053-0.379-0.104c-0.509-0.204-0.952-0.646-1.045-1.243c-0.137-0.864,0.466-1.632,1.036-2.229
				c0.768-0.804,1.564-1.577,2.382-2.318c2.56-2.325,5.348-4.326,8.296-5.951C33.146,92.596,36.872,93.814,40.642,94.816z"/>
		</g>
		<g>
			<path fill="#FEBB12" d="M113.447,100.546c-0.029,0.188-0.094,0.359-0.178,0.514c-0.268,0.455-0.758,0.761-1.246,0.834
				c-0.656,0.104-1.313-0.11-1.947-0.321c-6.262-2.091-12.471-4.403-18.609-6.923c3.77-1.002,7.494-2.222,10.264-4.601
				c2.514,1.384,4.908,3.039,7.143,4.936c1.23,1.042,2.414,2.154,3.539,3.334C112.982,98.915,113.585,99.682,113.447,100.546z"/>
		</g>
		<g>
			<path fill="#FEBB12" d="M81.152,95.376c-1.383,1.91-2.771,3.687-4.188,5.378c-1.076,1.301-2.175,2.551-3.297,3.773
				c-0.255,0.277-0.513,0.556-0.781,0.828c-1.575,1.611-3.381,3.042-5.461,3.032c-2.115-0.007-3.975-1.519-5.643-2.999
				c-3.377-3.006-6.645-6.176-9.788-9.5C61.808,93.976,71.606,93.721,81.152,95.376z"/>
		</g>
	</g>
	<g opacity="0.2">
		<path fill="#3E2771" d="M113.269,101.06c-0.268,0.455-0.758,0.761-1.246,0.834c-0.656,0.104-1.313-0.11-1.947-0.321
			c-6.262-2.091-12.471-4.403-18.609-6.923c3.77-1.002,7.494-2.222,10.264-4.601c2.514,1.384,4.908,3.039,7.143,4.936
			c-0.199,0.188-0.4,0.379-0.586,0.579c-0.613,0.67-1.068,1.652-0.688,2.477c0.248,0.536,0.791,0.872,1.311,1.156
			C110.281,99.943,111.722,100.569,113.269,101.06z"/>
	</g>
	<g opacity="0.2">
		<path fill="#3E2771" d="M40.642,94.816c-6.139,2.521-12.348,4.832-18.61,6.923c-0.634,0.211-1.29,0.426-1.947,0.321
			c-0.127-0.02-0.255-0.053-0.379-0.104c1.213-0.579,2.396-1.217,3.555-1.9c0.64-0.378,1.351-0.894,1.367-1.642
			c0.013-0.623-0.486-1.148-1.025-1.46c-0.492-0.288-1.052-0.466-1.524-0.788c2.56-2.325,5.348-4.326,8.296-5.951
			C33.146,92.596,36.872,93.814,40.642,94.816z"/>
	</g>
	<g>
		<path fill="#3E2771" d="M20.431,103.25c-0.173,0-0.348-0.013-0.526-0.04c-1.224-0.191-2.208-1.143-2.394-2.313
			c-0.246-1.551,0.908-2.759,1.342-3.214c3.269-3.424,6.957-6.278,10.961-8.483c0.425-0.234,0.951-0.181,1.319,0.137
			c2.596,2.229,6.248,3.411,9.806,4.357c0.482,0.129,0.83,0.551,0.862,1.049c0.032,0.497-0.257,0.961-0.719,1.15
			c-6.137,2.519-12.423,4.856-18.684,6.948C21.869,103.02,21.18,103.25,20.431,103.25z M30.258,91.618
			c-3.535,2.036-6.804,4.614-9.723,7.672c-0.196,0.205-0.792,0.83-0.727,1.243c0.031,0.195,0.261,0.349,0.457,0.38
			c0.391,0.061,0.925-0.118,1.397-0.275c5.161-1.726,10.34-3.618,15.438-5.644C34.638,94.187,32.255,93.148,30.258,91.618z"/>
	</g>
	<g>
		<path fill="#3E2771" d="M111.675,103.083c-0.748,0-1.438-0.23-1.967-0.408c-6.262-2.092-12.547-4.43-18.685-6.948
			c-0.462-0.189-0.751-0.653-0.718-1.151c0.031-0.498,0.379-0.92,0.861-1.048c3.559-0.945,7.209-2.129,9.807-4.358
			c0.367-0.316,0.893-0.371,1.318-0.137c4.004,2.206,7.691,5.061,10.961,8.484c0.436,0.455,1.588,1.663,1.342,3.214
			c-0.186,1.17-1.17,2.121-2.395,2.312C112.023,103.07,111.849,103.083,111.675,103.083z M95.007,94.827
			c5.096,2.024,10.275,3.918,15.438,5.643c0.473,0.157,1.008,0.337,1.398,0.275c0.195-0.03,0.426-0.184,0.455-0.379
			c0.066-0.414-0.529-1.038-0.727-1.243c-2.92-3.059-6.188-5.637-9.723-7.673C99.851,92.981,97.468,94.019,95.007,94.827z"/>
	</g>
	<g opacity="0.2">
		<path fill="#3E2771" d="M81.152,95.376c-1.383,1.91-2.771,3.687-4.188,5.378c-1.401-0.539-2.848-0.925-4.336-0.834
			c-1.313,0.08-2.574,0.529-3.864,0.811c-1.482,0.32-3.015,0.414-4.528,0.279c-1.159-0.103-1.75,1.374-0.812,2.063
			c1.239,0.91,2.72,1.534,4.224,1.872c1.716,0.39,3.475,0.457,5.237,0.41c-1.575,1.611-3.381,3.042-5.461,3.032
			c-2.115-0.007-3.975-1.519-5.643-2.999c-3.377-3.006-6.645-6.176-9.788-9.5C61.808,93.976,71.606,93.721,81.152,95.376z"/>
	</g>
	<g>
		<path fill="#3E2771" d="M67.444,109.552c-0.008,0-0.017,0-0.024-0.001c-2.509-0.011-4.542-1.633-6.409-3.294
			c-3.393-3.016-6.709-6.235-9.861-9.569c-0.291-0.309-0.391-0.749-0.262-1.154c0.129-0.402,0.468-0.704,0.884-0.785
			c10.165-1.984,20.116-2.158,29.577-0.519c0.396,0.069,0.729,0.336,0.879,0.708c0.151,0.372,0.1,0.795-0.136,1.12
			c-2.326,3.211-4.801,6.238-7.568,9.255C72.505,107.514,70.25,109.552,67.444,109.552z M54.329,96.644
			c2.655,2.732,5.415,5.376,8.227,7.876c1.535,1.366,3.176,2.699,4.874,2.706c0.004,0,0.009,0,0.014,0
			c1.908,0,3.708-1.675,5.368-3.484c2.263-2.468,4.325-4.941,6.27-7.52C71.12,95.058,62.813,95.198,54.329,96.644z"/>
	</g>
	<g>
		<path fill="#FAA430" d="M109.255,51.708c-1.305,0.029-2.51,0.867-2.945,2.177c-1.313,3.955-5.115,7.118-9.242,7.69
			c-1.74,0.241-2.955,1.846-2.713,3.585c0.24,1.739,1.842,2.955,3.584,2.713c6.537-0.906,12.326-5.722,14.406-11.984
			c0.553-1.666-0.35-3.465-2.016-4.019C109.974,51.751,109.611,51.699,109.255,51.708z"/>
	</g>
	<g>
		<path fill="#3E2771" d="M97.492,69.066c-0.939,0-1.848-0.304-2.609-0.88c-0.924-0.699-1.52-1.717-1.68-2.866
			c-0.328-2.372,1.334-4.568,3.705-4.896c3.707-0.513,7.119-3.353,8.299-6.905c0.578-1.736,2.193-2.932,4.023-2.973
			c0.498-0.01,0.99,0.063,1.467,0.221c2.271,0.755,3.506,3.217,2.752,5.489c-2.217,6.672-8.385,11.804-15.35,12.769
			C97.896,69.052,97.693,69.066,97.492,69.066z M109.283,52.87c-0.85,0.02-1.602,0.575-1.869,1.381
			c-1.447,4.36-5.637,7.845-10.188,8.475c-1.102,0.153-1.873,1.173-1.721,2.274c0.074,0.534,0.352,1.007,0.781,1.332
			c0.428,0.325,0.959,0.463,1.494,0.389c6.107-0.846,11.516-5.346,13.461-11.199c0.35-1.055-0.223-2.198-1.277-2.549
			C109.742,52.899,109.513,52.865,109.283,52.87L109.283,52.87z"/>
	</g>
	<g>
		<circle fill="#FFFFFF" cx="110.169" cy="52.405" r="5.169"/>
	</g>
	<g>
		<path fill="#3E2771" d="M110.166,58.737c-1.637,0-3.184-0.62-4.371-1.755c-1.223-1.168-1.918-2.743-1.955-4.434
			c-0.039-1.691,0.584-3.295,1.752-4.518c1.17-1.223,2.744-1.917,4.434-1.956c1.691-0.038,3.297,0.584,4.52,1.753
			s1.918,2.743,1.955,4.434c0.078,3.491-2.697,6.395-6.188,6.474C110.263,58.736,110.214,58.737,110.166,58.737z M110.171,48.397
			c-0.031,0-0.063,0-0.094,0.001c-1.07,0.024-2.066,0.464-2.805,1.238c-0.74,0.774-1.133,1.789-1.109,2.859
			c0.049,2.209,1.887,3.966,4.096,3.916c2.209-0.05,3.965-1.888,3.916-4.097C114.125,50.136,112.339,48.397,110.171,48.397z"/>
	</g>
	<g>
		<path fill="#FFFFFF" d="M111.099,34.436c0.018-1.378-1.402-2.251-2.439-1.937c-1.32,0.4-1.51,1.448-1.41,2.63
			c-1.596-0.662-2.322,0.969-2.547,2.264c-0.412,2.373-0.154,4.805,0.104,7.2c0.297,2.733,0.721,5.729,2.773,7.561
			c0.676,0.604,1.52,1.046,2.422,1.142c0.9,0.096,1.859-0.183,2.496-0.83c1.045,0.111,2.289-0.274,3.018-1.867
			c1.805-3.951-0.246-10.757-1.799-14.539C113.156,34.699,112.22,34.095,111.099,34.436z"/>
	</g>
	<g>
		<path fill="#3E2771" d="M110.353,54.478c-0.158,0-0.316-0.008-0.477-0.025c-1.092-0.116-2.154-0.611-3.072-1.431
			c-2.303-2.057-2.82-5.229-3.154-8.303c-0.264-2.444-0.537-4.972-0.094-7.524c0.15-0.859,0.584-2.402,1.809-3.076
			c0.203-0.112,0.461-0.216,0.768-0.27c0.213-1.259,0.945-2.085,2.189-2.462c0.854-0.259,2.422-0.392,3.863,1.313
			c1.443,0.066,2.074,1.616,2.516,2.698l0.09,0.222c0.982,2.393,4.014,10.578,1.781,15.463c-0.732,1.605-2.078,2.535-3.662,2.564
			C112.199,54.182,111.292,54.478,110.353,54.478z M106.558,36.14c-0.027,0-0.053,0.005-0.074,0.016
			c-0.207,0.114-0.502,0.656-0.637,1.437c-0.387,2.229-0.131,4.592,0.115,6.875c0.295,2.733,0.701,5.311,2.391,6.819
			c0.545,0.487,1.174,0.79,1.771,0.853c0.594,0.063,1.186-0.124,1.543-0.488c0.248-0.253,0.6-0.379,0.951-0.342
			c0.818,0.087,1.438-0.315,1.838-1.194c1.465-3.206,0.021-9.135-1.816-13.614l-0.094-0.228c-0.166-0.408-0.406-1.001-0.578-1.221
			c-0.48,0.134-0.996-0.056-1.275-0.474c-0.824-1.232-1.457-1.04-1.695-0.968c-0.371,0.112-0.691,0.209-0.59,1.421
			c0.033,0.404-0.146,0.797-0.475,1.036c-0.326,0.239-0.756,0.29-1.129,0.134C106.728,36.171,106.634,36.14,106.558,36.14z"/>
	</g>
	<g>
		<path fill="#3E2771" d="M108.271,34.736c1.09,2.276,1.684,4.783,1.729,7.306v0l-0.404-0.667c1.064,0.688,1.785,1.73,2.143,2.836
			c0.357,1.108,0.354,2.316-0.057,3.361c-0.041,0.108-0.164,0.161-0.273,0.119c-0.096-0.038-0.148-0.141-0.129-0.239
			c0.197-0.993,0-2.018-0.451-2.864c-0.451-0.848-1.168-1.524-1.973-1.851c-0.234-0.095-0.381-0.313-0.396-0.548l-0.008-0.119v0
			c-0.041-2.299-0.584-4.591-1.578-6.664c-0.186-0.386-0.021-0.849,0.365-1.034C107.623,34.187,108.085,34.35,108.271,34.736
			L108.271,34.736z"/>
	</g>
	<g>
		<path fill="#3E2771" d="M112.935,41.562c-0.025,0-0.053-0.001-0.08-0.004c-0.426-0.044-0.734-0.425-0.691-0.851
			c0.219-2.122-0.207-3.971-1.42-6.181c-0.207-0.375-0.068-0.846,0.307-1.052s0.846-0.069,1.053,0.306
			c1.357,2.474,1.852,4.659,1.604,7.086C113.666,41.265,113.328,41.562,112.935,41.562z"/>
	</g>
	<g>
		<path fill="#EE2F24" d="M123.294,51.218c1.303-0.063,2.564,0.686,3.092,1.961c1.594,3.852,5.611,6.735,9.77,7.011
			c1.752,0.116,3.078,1.631,2.963,3.383c-0.117,1.751-1.629,3.078-3.383,2.961c-6.584-0.437-12.703-4.827-15.225-10.925
			c-0.67-1.623,0.1-3.481,1.723-4.153C122.582,51.313,122.939,51.235,123.294,51.218z"/>
	</g>
	<g>
		<path fill="#3E2771" d="M135.953,67.704c-0.098,0-0.195-0.003-0.295-0.009c-7.016-0.466-13.533-5.144-16.221-11.641
			c-0.914-2.212,0.141-4.756,2.354-5.671c0.463-0.191,0.949-0.301,1.447-0.325l0,0c1.828-0.091,3.525,0.987,4.225,2.678
			c1.43,3.459,5.037,6.047,8.771,6.295c1.156,0.077,2.215,0.6,2.979,1.472s1.143,1.99,1.064,3.148
			c-0.076,1.157-0.598,2.215-1.471,2.979C138.009,67.328,137.005,67.704,135.953,67.704z M123.351,52.379
			c-0.23,0.011-0.457,0.062-0.672,0.151c-1.027,0.425-1.518,1.606-1.092,2.634c2.355,5.698,8.072,9.801,14.225,10.209
			c0.539,0.036,1.059-0.14,1.463-0.495c0.404-0.354,0.646-0.846,0.684-1.384c0.035-0.537-0.141-1.057-0.496-1.462
			c-0.354-0.405-0.846-0.648-1.383-0.684c-4.584-0.303-9.012-3.481-10.768-7.726C124.988,52.838,124.201,52.337,123.351,52.379
			L123.351,52.379z"/>
	</g>
	<g>
		<circle fill="#FFFFFF" cx="122.433" cy="51.979" r="5.17"/>
	</g>
	<g>
		<path fill="#3E2771" d="M122.425,58.311c-1.574,0-3.07-0.577-4.246-1.642c-1.252-1.136-1.988-2.692-2.07-4.382
			c-0.17-3.487,2.527-6.463,6.016-6.633c1.689-0.083,3.309,0.498,4.563,1.634c1.252,1.136,1.988,2.693,2.07,4.382
			c0.082,1.689-0.498,3.31-1.633,4.563c-1.137,1.252-2.693,1.988-4.383,2.071C122.636,58.308,122.531,58.311,122.425,58.311z
			 M122.439,47.972c-0.068,0-0.135,0.001-0.201,0.005c-2.207,0.107-3.914,1.99-3.807,4.197c0.053,1.069,0.518,2.054,1.311,2.773
			c0.793,0.718,1.816,1.085,2.887,1.034c1.068-0.052,2.055-0.518,2.773-1.311c0.719-0.792,1.086-1.818,1.033-2.887l0,0
			c-0.053-1.069-0.518-2.054-1.311-2.772C124.382,48.336,123.433,47.972,122.439,47.972z"/>
	</g>
	<g>
		<path fill="#FFFFFF" d="M120.224,34.122c-0.117-1.374,1.236-2.346,2.293-2.106c1.346,0.305,1.609,1.337,1.596,2.522
			c1.545-0.773,2.385,0.802,2.703,2.077c0.58,2.338,0.496,4.783,0.408,7.189c-0.1,2.749-0.309,5.767-2.225,7.74
			c-0.633,0.651-1.441,1.152-2.334,1.312c-0.893,0.16-1.869-0.049-2.549-0.649c-1.037,0.185-2.305-0.11-3.145-1.647
			c-2.082-3.812-0.521-10.747,0.758-14.63C118.189,34.532,119.082,33.862,120.224,34.122z"/>
	</g>
	<g>
		<path fill="#3E2771" d="M122.078,54.07c-0.826,0-1.627-0.229-2.289-0.658c-1.584,0.083-2.99-0.747-3.836-2.295
			c-2.574-4.714-0.137-13.095,0.672-15.551l0.074-0.229c0.363-1.11,0.881-2.701,2.316-2.87c1.316-1.805,2.891-1.783,3.76-1.586
			c1.268,0.288,2.059,1.06,2.359,2.3c0.313,0.031,0.576,0.117,0.787,0.214c1.27,0.584,1.811,2.092,2.021,2.939
			c0.625,2.513,0.533,5.054,0.443,7.511c-0.113,3.09-0.402,6.292-2.553,8.507c-0.857,0.883-1.883,1.453-2.963,1.646
			C122.605,54.047,122.341,54.07,122.078,54.07z M120.117,51.044c0.281,0,0.555,0.102,0.77,0.291
			c0.383,0.338,0.984,0.482,1.574,0.376c0.59-0.106,1.195-0.453,1.705-0.977c1.576-1.625,1.797-4.226,1.896-6.972
			c0.084-2.296,0.17-4.671-0.375-6.867c-0.191-0.769-0.521-1.288-0.738-1.388c-0.076-0.035-0.213,0.019-0.314,0.07
			c-0.363,0.182-0.793,0.162-1.139-0.054c-0.344-0.215-0.551-0.594-0.545-0.999c0.014-1.216-0.313-1.29-0.689-1.375
			c-0.244-0.055-0.889-0.202-1.621,1.086c-0.25,0.437-0.75,0.664-1.24,0.564c-0.154,0.231-0.354,0.841-0.49,1.26l-0.076,0.234
			c-1.514,4.599-2.529,10.616-0.842,13.709c0.463,0.848,1.109,1.205,1.92,1.06C119.98,51.05,120.048,51.044,120.117,51.044z"/>
	</g>
	<g>
		<path fill="#3E2771" d="M124.507,34.788c-0.842,2.139-1.221,4.464-1.098,6.759v0v0.126c0,0.25-0.145,0.466-0.355,0.568
			c-0.783,0.379-1.455,1.103-1.85,1.982c-0.396,0.878-0.527,1.918-0.26,2.905c0.025,0.096-0.029,0.196-0.127,0.222
			c-0.084,0.024-0.172-0.019-0.211-0.095c-0.486-1.003-0.58-2.204-0.309-3.332c0.271-1.127,0.91-2.222,1.92-2.987l-0.355,0.694v0
			c-0.135-2.52,0.277-5.063,1.203-7.411c0.156-0.398,0.605-0.594,1.006-0.437C124.468,33.939,124.666,34.389,124.507,34.788
			L124.507,34.788z"/>
	</g>
	<g>
		<path fill="#3E2771" d="M118.845,41.391c-0.369,0-0.695-0.265-0.762-0.641c-0.422-2.402-0.086-4.618,1.094-7.183
			c0.178-0.389,0.639-0.559,1.027-0.38s0.559,0.639,0.381,1.028c-1.053,2.292-1.346,4.166-0.977,6.267
			c0.074,0.422-0.207,0.824-0.629,0.898C118.935,41.387,118.89,41.391,118.845,41.391z"/>
	</g>
	<g>
		<path fill="#8EC73F" d="M106.484,92.856c-0.688,1.887-2.418,3.4-4.779,3.327c-1.496-0.047-2.934-0.66-4.24-1.454
			c-1.164,1.504-3.404,2.849-5.754,3.076c-2.349,0.225-4.774-0.667-6.508-2.399c-1.216,2.215-3.746,3.476-6.138,3.405
			c-2.389-0.074-4.641-1.271-6.59-2.766c-1.934,1.472-4.152,2.541-6.43,2.688c-2.279,0.144-4.598-0.634-6.4-2.148
			c-2.078,1.665-4.704,2.701-7.288,2.537c-2.583-0.164-5.08-1.525-6.742-3.673c-1.876,1.702-4.37,2.58-6.812,2.398
			c-2.439-0.181-4.802-1.417-6.447-3.377c-1.542,0.597-3.13,1.199-4.765,1.126c-2.546-0.114-3.937-2.936-3.448-5.552
			c0.121-0.645,0.352-1.271,0.71-1.847c0.925-1.488,2.684-2.607,5.458-2.607c0,0,49.552,0.342,69.904,0.342
			c4.387,0,6.34,2.231,6.572,4.611C106.859,91.325,106.751,92.12,106.484,92.856z"/>
	</g>
	<g opacity="0.6">
		<path fill="#FFFFFF" d="M106.484,92.856c-0.443-0.992-1.598-2.546-2.477-3.196c-2.203-1.629-4.668-1.06-7.408-1.1
			c-22.417-0.312-43.234-0.361-67.226-0.361c-1.621,0-3.287,1.001-4.782,1.632c-0.15,0.063-0.301,0.138-0.449,0.215
			c0.121-0.645,0.352-1.271,0.71-1.847c0.925-1.488,2.684-2.607,5.458-2.607c0,0,49.552,0.342,69.904,0.342
			c4.387,0,6.34,2.231,6.572,4.611C106.859,91.325,106.751,92.12,106.484,92.856z"/>
	</g>
	<g>
		<path fill="#3E2771" d="M52.88,100.302c-0.2,0-0.4-0.007-0.599-0.02c-2.517-0.16-4.989-1.344-6.81-3.224
			c-1.973,1.423-4.377,2.127-6.756,1.95c-2.489-0.186-4.884-1.327-6.687-3.168c-1.372,0.515-2.882,0.992-4.491,0.918
			c-1.32-0.059-2.517-0.684-3.369-1.758c-1.082-1.364-1.52-3.297-1.169-5.17c0.152-0.812,0.444-1.566,0.866-2.246
			c1.265-2.035,3.554-3.155,6.445-3.155c0.504,0.003,49.789,0.342,69.904,0.342c5.293,0,7.463,2.924,7.729,5.661
			c0.09,0.942-0.037,1.917-0.367,2.821l0,0c-0.936,2.568-3.252,4.172-5.906,4.092c-1.264-0.039-2.568-0.414-3.961-1.143
			c-1.508,1.497-3.717,2.55-5.886,2.76c-2.245,0.214-4.554-0.462-6.399-1.835c-1.527,1.81-3.945,2.917-6.393,2.845
			c-2.128-0.065-4.282-0.881-6.563-2.487c-2.102,1.445-4.282,2.274-6.35,2.408c-2.266,0.144-4.581-0.524-6.482-1.852
			C57.547,99.499,55.152,100.302,52.88,100.302z M45.614,94.288c0.034,0,0.068,0.001,0.102,0.004
			c0.323,0.028,0.619,0.189,0.817,0.446c1.452,1.876,3.656,3.081,5.896,3.224c2.143,0.137,4.507-0.695,6.487-2.283
			c0.433-0.347,1.05-0.339,1.475,0.018c1.569,1.317,3.604,2.002,5.579,1.877c1.842-0.118,3.848-0.967,5.799-2.451
			c0.417-0.317,0.995-0.317,1.412,0.001c2.113,1.62,4.105,2.47,5.919,2.525c2.086,0.064,4.129-1.063,5.083-2.802
			c0.177-0.32,0.493-0.54,0.854-0.591c0.363-0.052,0.729,0.069,0.986,0.328c1.484,1.484,3.57,2.257,5.575,2.064
			c1.853-0.181,3.886-1.262,4.944-2.63c0.361-0.468,1.018-0.59,1.523-0.283c1.367,0.831,2.568,1.251,3.674,1.287
			c1.98,0.06,3.184-1.284,3.65-2.563c0.211-0.581,0.293-1.206,0.236-1.806c-0.217-2.227-2.24-3.557-5.414-3.557
			c-20.123,0-69.416-0.338-69.912-0.342c-2.08,0-3.626,0.712-4.463,2.058c-0.27,0.433-0.456,0.921-0.555,1.447
			c-0.224,1.201,0.046,2.465,0.705,3.296c0.44,0.555,0.996,0.851,1.652,0.88c1.419,0.066,2.88-0.501,4.293-1.048
			c0.464-0.18,0.991-0.045,1.31,0.336c1.449,1.727,3.505,2.808,5.643,2.967c2.133,0.158,4.299-0.608,5.945-2.102
			C45.048,94.394,45.326,94.288,45.614,94.288z M106.484,92.856h0.004H106.484z"/>
	</g>
	<g>
		<path fill="#A63540" d="M105.285,81.571c0,0.288-0.031,0.569-0.088,0.841c-0.164,0.797-0.559,1.508-1.115,2.064
			c-0.744,0.744-1.771,1.203-2.908,1.203H28.307c-2.268,0-4.104-1.833-4.111-4.098v-0.01c0-0.744,0.198-1.441,0.539-2.041
			c0.711-1.236,2.044-2.071,3.572-2.071h72.866c1.936,0,3.563,1.34,3.994,3.143C105.244,80.914,105.285,81.236,105.285,81.571z"/>
	</g>
	<g opacity="0.6">
		<path fill="#FFFFFF" d="M105.285,81.571c0,0.288-0.031,0.569-0.088,0.841c-0.133-0.127-0.271-0.241-0.414-0.349
			c-2.205-1.642-5.1-2.125-7.85-2.125c-10.1,0-49.287,0.01-64.438,0.01c-2.828,0-5.991,0.214-8.3,1.632v-0.01
			c0-0.744,0.198-1.441,0.539-2.041c0.711-1.236,2.044-2.071,3.572-2.071h72.866c1.936,0,3.563,1.34,3.994,3.143
			C105.244,80.914,105.285,81.236,105.285,81.571z"/>
	</g>
	<g>
		<path fill="#3E2771" d="M101.173,86.842H28.307c-2.9,0-5.265-2.358-5.274-5.257c0-0.931,0.239-1.835,0.692-2.629
			c0.942-1.641,2.698-2.658,4.582-2.658h72.866c2.447,0,4.555,1.659,5.125,4.035c0.098,0.397,0.148,0.817,0.148,1.24
			c0,0.362-0.037,0.726-0.111,1.079c-0.207,1.001-0.701,1.918-1.432,2.648C103.908,86.293,102.583,86.842,101.173,86.842z
			 M28.307,78.622c-1.055,0-2.037,0.57-2.564,1.487c-0.251,0.441-0.385,0.948-0.385,1.462c0.005,1.627,1.328,2.945,2.949,2.945
			h72.866c0.789,0,1.529-0.307,2.086-0.862c0.408-0.408,0.684-0.919,0.799-1.477c0.043-0.201,0.064-0.404,0.064-0.606
			c0-0.237-0.027-0.463-0.084-0.689c-0.32-1.333-1.498-2.26-2.865-2.26H28.307z"/>
	</g>
	<g>
		<path fill="#FAA430" d="M105.201,74.514v0.003c-1.387,1.773-3.551,2.942-6.031,2.942H30.311c-3.588,0-6.524-2.453-7.381-5.636
			c-0.312-1.143-0.352-2.382-0.06-3.635c1.873-8.022,6.104-15.364,11.945-21.127C42.548,39.429,53.106,34.57,64.74,34.57
			c15.689,0,29.414,8.833,36.91,21.384c2.258,3.787,3.953,7.912,4.961,12.234C107.158,70.521,106.548,72.802,105.201,74.514z"/>
	</g>
	<g opacity="0.6">
		<path fill="#FFFFFF" d="M105.201,74.514c0-3.086-0.814-6.282-1.938-9.178C99.525,55.7,92.558,47.232,83.484,42.283
			c-9.074-4.949-20.235-6.196-29.979-2.751c-6.179,2.182-11.607,6.098-16.502,10.455c-3.857,3.434-7.476,7.211-10.156,11.627
			c-1.903,3.129-3.314,6.607-3.917,10.209c-0.312-1.143-0.352-2.382-0.06-3.635c1.873-8.022,6.104-15.364,11.945-21.127
			C42.548,39.429,53.106,34.57,64.74,34.57c15.689,0,29.414,8.833,36.91,21.384c2.258,3.787,3.953,7.912,4.961,12.234
			C107.158,70.521,106.548,72.802,105.201,74.514z"/>
	</g>
	<g>
		<path fill="#3E2771" d="M99.169,78.622H30.311c-2.709,0-5.229-1.218-6.913-3.341c-1.66-2.091-2.265-4.772-1.661-7.357
			c4.672-20,22.757-34.517,43.003-34.517c20.247,0,38.334,14.517,43.004,34.518c0.604,2.584-0.002,5.266-1.662,7.356
			C104.398,77.404,101.878,78.622,99.169,78.622z M64.74,35.731c-19.177,0-36.31,13.762-40.739,32.722
			c-0.441,1.889,0.003,3.851,1.219,5.383c1.24,1.564,3.096,2.46,5.091,2.46h68.858c1.994,0,3.852-0.896,5.092-2.46
			c1.215-1.532,1.66-3.494,1.219-5.383C101.052,49.493,83.917,35.731,64.74,35.731z"/>
	</g>
	<g>
		<path fill="#3E2771" d="M62.099,62.199c-0.636,0-1.155-0.512-1.162-1.15c-0.021-1.985,1.45-3.8,3.423-4.222
			c1.963-0.42,4.064,0.621,4.889,2.421c0.267,0.584,0.011,1.273-0.573,1.541s-1.274,0.011-1.541-0.573
			c-0.363-0.793-1.411-1.305-2.289-1.116c-0.868,0.186-1.593,1.066-1.584,1.923c0.007,0.642-0.508,1.168-1.15,1.175
			C62.107,62.199,62.104,62.199,62.099,62.199z"/>
	</g>
	<g>
		<path fill="#3E2771" d="M86.093,58.2c-0.605,0-1.117-0.47-1.159-1.083c-0.125-1.834,1.333-3.596,3.183-3.847
			c1.844-0.249,3.729,1.053,4.117,2.844c0.136,0.627-0.263,1.247-0.891,1.382c-0.627,0.136-1.246-0.262-1.382-0.89
			c-0.134-0.619-0.878-1.12-1.532-1.032c-0.646,0.088-1.218,0.76-1.176,1.384c0.044,0.641-0.439,1.195-1.08,1.239
			C86.146,58.199,86.12,58.2,86.093,58.2z"/>
	</g>
	<g opacity="0.2">
		<path fill="#3E2771" d="M105.285,81.571c0,1.136-0.459,2.161-1.203,2.905c-0.744,0.744-1.771,1.203-2.908,1.203H28.307
			c-2.272,0-4.111-1.839-4.111-4.107c0-0.744,0.198-1.441,0.539-2.041c0.701,1.029,1.796,1.83,2.973,2.279
			c1.883,0.72,3.951,0.72,5.967,0.71c21.563-0.11,43.125-0.218,64.69-0.328c1.92-0.01,3.914-0.037,5.65-0.854
			c0.408-0.191,0.797-0.442,1.152-0.734C105.244,80.914,105.285,81.236,105.285,81.571z"/>
	</g>
	<g>
		<path fill="#FFFFFF" d="M15.375,95.229c0.748,1.243,1.196,2.72,1.284,4.239c0.055,0.956-0.043,1.972-0.516,2.786
			c-0.472,0.813-1.393,1.355-2.195,1.072c-0.661,1.704-2.201,2.886-3.813,3.169c-1.612,0.285-3.264-0.255-4.602-1.253
			c-1.444-1.078-2.571-2.706-3.076-4.592c-0.504-1.885-0.365-4.02,0.457-5.802c0.822-1.783,2.333-3.177,4.051-3.631
			c1.607-0.425,3.298-0.033,4.758,0.768C13.183,92.787,14.557,93.871,15.375,95.229z"/>
	</g>
	<g>
		<path fill="#3E2771" d="M9.254,107.736c-1.508,0-3.043-0.538-4.416-1.563c-1.697-1.266-2.941-3.12-3.503-5.222
			c-0.586-2.192-0.395-4.594,0.524-6.589c0.984-2.138,2.783-3.733,4.81-4.269c1.751-0.462,3.745-0.152,5.613,0.873
			c1.838,1.008,3.252,2.274,4.088,3.662c0.849,1.409,1.349,3.059,1.449,4.771c0.08,1.377-0.146,2.533-0.67,3.438
			c-0.578,0.995-1.53,1.619-2.5,1.714c-0.909,1.598-2.524,2.774-4.313,3.09C9.979,107.705,9.618,107.736,9.254,107.736z M8.32,92.21
			c-0.366,0-0.721,0.044-1.057,0.133c-1.344,0.354-2.605,1.502-3.292,2.993c-0.686,1.489-0.832,3.364-0.39,5.016
			c0.428,1.598,1.368,3.004,2.648,3.959c1.167,0.871,2.517,1.251,3.705,1.041c1.293-0.228,2.444-1.188,2.931-2.445
			c0.227-0.585,0.878-0.885,1.471-0.675c0.158,0.055,0.559-0.14,0.802-0.56c0.292-0.504,0.414-1.222,0.361-2.136
			c-0.078-1.338-0.465-2.62-1.12-3.707l0,0c-0.624-1.036-1.735-2.012-3.214-2.823C10.207,92.48,9.228,92.21,8.32,92.21z"/>
	</g>
	<g>
		<circle fill="#FFFFFF" cx="10.942" cy="92.76" r="5.544"/>
	</g>
	<g>
		<path fill="#3E2771" d="M10.955,99.468c-0.264,0-0.529-0.016-0.795-0.047c-3.673-0.432-6.31-3.771-5.878-7.443
			c0.432-3.673,3.771-6.31,7.443-5.878c1.779,0.209,3.371,1.099,4.481,2.504c1.11,1.406,1.606,3.16,1.397,4.938
			c-0.208,1.78-1.098,3.371-2.504,4.481C13.903,98.968,12.456,99.468,10.955,99.468z M10.938,88.378
			c-2.189,0-4.086,1.645-4.348,3.871c-0.282,2.398,1.441,4.581,3.84,4.862c1.162,0.137,2.308-0.188,3.227-0.913
			c0.918-0.725,1.5-1.765,1.636-2.927l0,0c0.137-1.163-0.188-2.309-0.913-3.227c-0.725-0.919-1.765-1.499-2.927-1.636
			C11.28,88.388,11.108,88.378,10.938,88.378z"/>
	</g>
	<g>
		<path fill="#FAA430" d="M11.808,93.636c1.391,0.164,2.795-0.546,3.453-1.872c1.986-4.005,6.495-6.796,10.964-6.787
			c1.883,0.003,3.413-1.52,3.416-3.403c0.003-1.883-1.517-3.412-3.403-3.416c-7.076-0.014-13.943,4.237-17.087,10.578
			c-0.836,1.687-0.147,3.732,1.541,4.569C11.052,93.482,11.43,93.592,11.808,93.636z"/>
	</g>
	<g>
		<path fill="#3E2771" d="M12.203,94.822c-0.176,0-0.353-0.011-0.531-0.031l0,0c-0.521-0.062-1.024-0.211-1.497-0.445
			c-2.258-1.12-3.185-3.868-2.065-6.126c3.33-6.718,10.599-11.225,18.094-11.225c0.013,0,0.024,0,0.036,0
			c1.223,0.002,2.37,0.48,3.232,1.346c0.861,0.864,1.334,2.013,1.332,3.234c-0.005,2.518-2.055,4.563-4.572,4.564
			c-0.01,0-0.019,0-0.028,0c-4.039,0-8.108,2.523-9.902,6.141C15.525,93.847,13.922,94.822,12.203,94.822z M11.943,92.482
			c0.939,0.11,1.854-0.387,2.275-1.234c2.171-4.38,7.097-7.435,11.985-7.435c0.009,0,0.019,0,0.027,0
			c1.237,0,2.244-1.005,2.247-2.242c0.001-0.601-0.231-1.165-0.654-1.59c-0.423-0.425-0.987-0.66-1.588-0.661
			c-0.011,0-0.021,0-0.032,0c-6.633,0-13.064,3.988-16.011,9.931c-0.55,1.111-0.095,2.461,1.015,3.012
			C11.441,92.378,11.688,92.452,11.943,92.482L11.943,92.482z"/>
	</g>
	<g>
		<path fill="#3E2771" d="M81.595,64.514c-0.41,1.074-1.146,1.892-2.423,2.027c-3.2,0.337-4.269-3.196-4.624-5.5
			c-0.171-1.094-0.181-1.912-0.181-1.912s3.371,1.411,7.389-0.795C81.755,58.333,82.523,62.078,81.595,64.514z"/>
	</g>
	<g>
		<path fill="#F0689E" d="M81.595,64.514c-0.41,1.074-1.146,1.892-2.423,2.027c-3.2,0.337-4.269-3.196-4.624-5.5
			C76.384,61.354,79.064,62.212,81.595,64.514z"/>
	</g>
	<g>
		<path fill="#3E2771" d="M78.737,67.339c-2.587,0-4.337-2.171-4.956-6.181c-0.177-1.134-0.189-1.985-0.19-2.021
			c-0.003-0.262,0.125-0.506,0.342-0.652c0.216-0.146,0.492-0.173,0.732-0.073c0.122,0.05,3.101,1.226,6.716-0.76
			c0.216-0.119,0.475-0.127,0.698-0.024c0.224,0.103,0.384,0.307,0.435,0.548c0.033,0.162,0.801,3.996-0.196,6.613l0,0
			c-0.571,1.499-1.631,2.371-3.066,2.521C79.078,67.33,78.906,67.339,78.737,67.339z M75.215,60.169
			c0.024,0.227,0.056,0.48,0.099,0.751c0.363,2.356,1.312,5.107,3.777,4.849c0.85-0.09,1.416-0.576,1.78-1.532v0
			c0.561-1.472,0.43-3.534,0.281-4.747C78.653,60.568,76.476,60.422,75.215,60.169z"/>
	</g>
	<g>
		<path fill="#FEBB12" d="M191.439,8.39L191.439,8.39c-1.553,0.423-2.744,1.668-3.098,3.238l-13.723,60.913l8.287,1.889l8.287,1.89
			l13.719-60.894c0.357-1.583-0.188-3.233-1.414-4.294l0,0C200.185,8.269,195.664,7.241,191.439,8.39z"/>
	</g>
	<g opacity="0.6">
		<path fill="#FFFFFF" d="M205.132,12.813l-0.846,3.529c-0.303-0.593-0.701-1.143-1.168-1.613c-1.461-1.47-3.455-2.276-5.445-2.856
			c-1.984-0.579-4.32-0.911-5.957,0.354c-0.865,0.665-1.383,1.674-1.875,2.648c-1.137,2.253-2.27,4.508-3.404,6.761l2.977-12.404
			l2.57-0.689c3.932-1.053,8.127-0.085,11.201,2.585L205.132,12.813z"/>
	</g>
	<g>
		<path fill="#3E2771" d="M191.193,77.482c-0.086,0-0.172-0.01-0.258-0.029l-16.576-3.779c-0.623-0.142-1.016-0.764-0.875-1.389
			l13.566-60.219c0.545-2.423,2.373-4.333,4.77-4.985c4.176-1.136,8.625-0.125,11.9,2.706l0.025,0.022
			c1.871,1.617,2.695,4.12,2.152,6.531l-13.57,60.234c-0.068,0.301-0.254,0.563-0.514,0.728
			C191.626,77.421,191.412,77.482,191.193,77.482z M176.007,71.665l14.309,3.262l13.313-59.097c0.355-1.574-0.182-3.207-1.402-4.261
			l-0.027-0.022c-2.688-2.324-6.34-3.154-9.768-2.222l0,0c-1.564,0.425-2.756,1.671-3.113,3.252L176.007,71.665z M192.125,8.204
			h0.004H192.125z"/>
	</g>
	<g>
		<path fill="#3E2771" d="M182.906,75.399c-0.07,0-0.143-0.007-0.215-0.024c-0.521-0.119-0.848-0.637-0.73-1.159l15.006-66.172
			c0.117-0.522,0.637-0.849,1.158-0.731s0.85,0.637,0.73,1.159l-15.004,66.173C183.748,75.094,183.349,75.399,182.906,75.399z"/>
	</g>
	<g>
		<path fill="#FEBB12" d="M166.294,5.481l-0.713,0.293l-6.664,64.703l8.463,0.828l8.461,0.828l6.662-64.703l-0.607-0.405
			C177.277,3.948,171.427,3.369,166.294,5.481z"/>
	</g>
	<g opacity="0.6">
		<path fill="#FFFFFF" d="M181.957,7.844l-0.455,3.601c-0.363-0.556-0.822-1.06-1.336-1.475c-1.613-1.301-3.684-1.882-5.727-2.241
			c-2.035-0.357-4.393-0.432-5.881,1.005c-0.787,0.755-1.191,1.815-1.574,2.838c-0.881,2.365-1.76,4.729-2.643,7.094l1.598-12.656
			l2.479-0.968c3.793-1.478,8.07-0.976,11.42,1.34L181.957,7.844z"/>
	</g>
	<g>
		<path fill="#3E2771" d="M175.843,73.296c-0.039,0-0.076-0.002-0.115-0.006l-16.922-1.656c-0.309-0.029-0.592-0.181-0.787-0.42
			c-0.195-0.24-0.289-0.547-0.258-0.855l6.42-62.346c0.195-1.88,1.4-3.495,3.148-4.214c0.039-0.016,0.078-0.03,0.119-0.042
			l0.107-0.031l0,0c4.525-1.311,9.318-0.832,13.496,1.349c0.037,0.019,0.072,0.04,0.107,0.063c1.586,1.058,2.451,2.893,2.256,4.79
			l-6.418,62.324C176.937,72.851,176.431,73.296,175.843,73.296z M160.195,69.434l14.609,1.43l6.299-61.174
			c0.104-1.018-0.35-2.002-1.186-2.584c-3.631-1.876-7.787-2.284-11.715-1.146l-0.041,0.012c-0.926,0.404-1.563,1.272-1.666,2.28
			L160.195,69.434z"/>
	</g>
	<g>
		<path fill="#3E2771" d="M167.38,72.274c-0.033,0-0.066-0.002-0.102-0.005c-0.531-0.055-0.918-0.531-0.863-1.063l6.902-66.482
			c0.057-0.532,0.531-0.918,1.064-0.863c0.533,0.055,0.92,0.531,0.863,1.063l-6.902,66.481
			C168.292,71.904,167.871,72.274,167.38,72.274z"/>
	</g>
	<g opacity="0.2">
		<path fill="#3E2771" d="M182.048,10.428l-5.988,60.373l-8.455-0.903l-8.455-0.907l5.787-58.37
			c2.818,1.268,6.576,2.402,10.352,2.146C177.689,12.605,180.097,11.812,182.048,10.428z"/>
	</g>
	<g opacity="0.2">
		<path fill="#3E2771" d="M204.904,14.561l-12.24,59.421l-8.314-1.779l-8.316-1.782l11.834-57.45
			c2.672,1.554,6.289,3.073,10.072,3.212C200.341,16.271,202.82,15.733,204.904,14.561z"/>
	</g>
	<g>
		<path fill="#FEBB12" d="M153.857,19.299l-1.99,1.02l-1.422,61.563l8.057,0.105l8.059,0.105l1.422-61.562l-1.893-1.043
			C162.296,17.395,157.712,17.325,153.857,19.299z"/>
	</g>
	<g opacity="0.6">
		<path fill="#FFFFFF" d="M167.824,20.519v3.629c-0.432-0.506-0.947-0.949-1.51-1.297c-1.764-1.089-3.891-1.407-5.963-1.508
			c-2.063-0.101-4.412,0.121-5.709,1.732c-0.688,0.848-0.955,1.95-1.205,3.012c-0.58,2.456-1.158,4.912-1.736,7.369l0.002-12.757
			l2.34-1.27c3.578-1.94,7.885-1.977,11.496-0.097L167.824,20.519z"/>
	</g>
	<g>
		<path fill="#3E2771" d="M166.56,83.254c-0.006,0-0.01,0-0.016,0l-16.115-0.211c-0.311-0.004-0.605-0.132-0.822-0.355
			c-0.215-0.223-0.332-0.523-0.324-0.834l1.373-59.475c0.039-1.715,1.012-3.266,2.539-4.047l0.1-0.051l0,0
			c4.227-2.165,9.23-2.088,13.389,0.204c1.527,0.843,2.451,2.451,2.412,4.196l-1.373,59.438
			C167.707,82.75,167.191,83.254,166.56,83.254z M151.632,80.733l13.791,0.181l1.348-58.287c0.02-0.876-0.443-1.683-1.211-2.105
			c-3.48-1.918-7.668-1.982-11.205-0.172l0,0l-0.1,0.052c-0.766,0.392-1.254,1.17-1.275,2.031L151.632,80.733z"/>
	</g>
	<g>
		<path fill="#3E2771" d="M158.501,82.955c-0.006,0-0.016,0-0.023,0c-0.535-0.013-0.957-0.457-0.945-0.992l1.51-63.484
			c0.012-0.535,0.461-0.961,0.992-0.946c0.533,0.013,0.957,0.457,0.945,0.992l-1.51,63.484
			C159.458,82.536,159.027,82.955,158.501,82.955z"/>
	</g>
	<g>
		<path fill="#FEBB12" d="M176.345,15.663l-0.977,0.282l-13.453,63.652l8.316,1.758l8.316,1.757l13.453-63.652l-0.779-0.653
			C187.095,15.348,181.519,14.169,176.345,15.663z"/>
	</g>
	<g opacity="0.6">
		<path fill="#FFFFFF" d="M191.697,19.385l-0.725,3.555c-0.322-0.582-0.74-1.119-1.221-1.573c-1.51-1.42-3.531-2.158-5.539-2.671
			c-2.002-0.512-4.348-0.766-5.941,0.554c-0.842,0.693-1.326,1.719-1.785,2.709c-1.059,2.291-2.115,4.581-3.176,6.872l2.559-12.498
			l2.545-0.776c3.895-1.184,8.121-0.358,11.283,2.207L191.697,19.385z"/>
	</g>
	<g>
		<path fill="#3E2771" d="M178.55,84.274c-0.08,0-0.162-0.008-0.242-0.026l-16.633-3.515c-0.627-0.133-1.029-0.75-0.896-1.377
			l12.891-60.987c0.436-2.065,1.967-3.712,3.996-4.297c0.041-0.012,0.084-0.022,0.129-0.029l0.094-0.016l0,0
			c4.434-0.745,8.934,0.22,12.672,2.716c0.033,0.023,0.068,0.049,0.1,0.075c1.619,1.356,2.352,3.481,1.916,5.547l-12.889,60.987
			C179.57,83.899,179.087,84.274,178.55,84.274z M163.294,78.699l14.357,3.035L190.3,21.885c0.256-1.204-0.162-2.441-1.088-3.245
			c-3.232-2.139-7.113-2.962-10.938-2.32l0,0l-0.025,0.004c-1.172,0.361-2.053,1.324-2.307,2.526L163.294,78.699z"/>
	</g>
	<g>
		<path fill="#3E2771" d="M170.234,82.323c-0.068,0-0.137-0.007-0.205-0.022c-0.523-0.112-0.855-0.627-0.744-1.15l14.051-65.372
			c0.113-0.523,0.629-0.856,1.152-0.743c0.521,0.112,0.855,0.627,0.742,1.15l-14.051,65.372
			C171.082,82.012,170.679,82.323,170.234,82.323z"/>
	</g>
	<g opacity="0.2">
		<path fill="#3E2771" d="M169.259,25.684l-0.363,60.667l-8.502-0.115l-8.502-0.119l0.348-58.655c2.926,1,6.771,1.782,10.508,1.177
			C165.121,28.255,167.445,27.242,169.259,25.684z"/>
	</g>
	<g>
		<path fill="#FEBB12" d="M214.375,25.851l-1.299,4.162l-18.113,57.901l-8.096-2.6l-8.096-2.604l17.51-55.981l1.9-6.079l2.332-0.425
			c4.449-0.808,9.008,0.65,12.164,3.887L214.375,25.851z"/>
	</g>
	<g opacity="0.6">
		<path fill="#FFFFFF" d="M213.8,25.191l-0.975,3.496c-0.281-0.604-0.658-1.168-1.107-1.655c-1.406-1.522-3.369-2.4-5.338-3.053
			c-1.961-0.651-4.283-1.069-5.965,0.136c-0.889,0.632-1.443,1.622-1.971,2.578c-1.217,2.21-2.432,4.421-3.65,6.632l3.428-12.287
			l2.594-0.595c3.969-0.908,8.127,0.212,11.102,2.993L213.8,25.191z"/>
	</g>
	<g>
		<path fill="#3E2771" d="M194.962,89.077c-0.119,0-0.24-0.019-0.355-0.056l-16.193-5.203c-0.607-0.196-0.943-0.845-0.754-1.454
			l18.658-59.648c0.596-1.903,2.184-3.306,4.145-3.663l0,0c4.738-0.86,9.574,0.685,12.938,4.132c1.414,1.45,1.916,3.552,1.313,5.486
			l-18.641,59.589c-0.092,0.297-0.299,0.543-0.574,0.686C195.332,89.033,195.148,89.077,194.962,89.077z M180.224,81.958
			l13.979,4.491l18.289-58.471c0.35-1.117,0.061-2.331-0.758-3.168c-2.82-2.894-6.879-4.19-10.855-3.467l0,0
			c-1.107,0.201-2.006,0.994-2.342,2.068L180.224,81.958z"/>
	</g>
	<g>
		<path fill="#3E2771" d="M186.867,86.282c-0.094,0-0.191-0.014-0.285-0.043c-0.512-0.157-0.799-0.7-0.641-1.211l19.797-64.266
			c0.158-0.512,0.701-0.798,1.211-0.641c0.512,0.158,0.799,0.7,0.641,1.211l-19.797,64.266
			C187.664,86.015,187.281,86.282,186.867,86.282z"/>
	</g>
	<g>
		<path fill="#FEBB12" d="M160.548,35.052v3.629l-0.016,57.935l-8.063,0.091l-8.059,0.09l0.014-48.808l0.004-12.756l2.338-1.27
			c3.578-1.94,7.885-1.977,11.496-0.098L160.548,35.052z"/>
	</g>
	<g opacity="0.6">
		<path fill="#FFFFFF" d="M160.548,35.052v3.629c-0.432-0.506-0.947-0.948-1.512-1.296c-1.762-1.089-3.889-1.408-5.959-1.508
			c-2.064-0.101-4.414,0.121-5.711,1.732c-0.688,0.848-0.955,1.95-1.205,3.013c-0.58,2.456-1.156,4.912-1.736,7.368l0.004-12.756
			l2.338-1.27c3.578-1.94,7.885-1.977,11.496-0.098L160.548,35.052z"/>
	</g>
	<g>
		<path fill="#3E2771" d="M144.412,97.959c-0.307,0-0.6-0.121-0.818-0.336c-0.221-0.219-0.344-0.517-0.344-0.827l0.016-59.544
			c0-1.672,0.914-3.206,2.383-4.003l0.352-0.19c4.057-2.2,8.922-2.242,13.016-0.112c1.662,0.865,2.695,2.567,2.695,4.441
			l-0.016,59.23c0,0.638-0.514,1.155-1.15,1.162l-16.121,0.18C144.419,97.959,144.416,97.959,144.412,97.959z M152.613,33.703
			c-1.893,0-3.785,0.467-5.504,1.399l0,0l-0.352,0.19c-0.721,0.391-1.168,1.141-1.168,1.96l-0.014,58.369l13.795-0.153l0.014-58.082
			c0.002-1.004-0.553-1.915-1.441-2.378C156.269,34.137,154.441,33.703,152.613,33.703z M146.554,34.08h0.004H146.554z"/>
	</g>
	<g>
		<path fill="#3E2771" d="M152.472,97.676L152.472,97.676c-0.535,0-0.969-0.434-0.969-0.969l0.008-64.165
			c0-0.535,0.434-0.969,0.969-0.969l0,0c0.535,0,0.969,0.434,0.969,0.969l-0.008,64.165
			C153.441,97.242,153.007,97.676,152.472,97.676z"/>
	</g>
	<g opacity="0.2">
		<path fill="#3E2771" d="M213.076,30.013l-18.113,57.901l-8.096-2.6l-8.096-2.604l17.51-55.981
			c2.504,1.813,5.951,3.686,9.701,4.202C208.365,31.259,210.884,30.971,213.076,30.013z"/>
	</g>
	<g opacity="0.2">
		<path fill="#3E2771" d="M191.378,25.58l-12.207,59.428l-8.314-1.774l-8.316-1.777L174.339,24
			c2.672,1.552,6.291,3.069,10.074,3.206C186.816,27.293,189.294,26.753,191.378,25.58z"/>
	</g>
	<g>
		<path fill="#FEBB12" d="M189.154,31.712l-3.512,0.679l-19.68,65.341l8.525,2.634l8.525,2.634l18.721-62.157
			c0.59-1.962,0.057-4.09-1.389-5.541l-0.219-0.22C197.257,32.204,193.144,30.94,189.154,31.712z"/>
	</g>
	<g opacity="0.6">
		<path fill="#FFFFFF" d="M201.736,36.86l-1.033,3.479c-0.27-0.608-0.639-1.179-1.078-1.673c-1.381-1.545-3.33-2.456-5.285-3.142
			c-1.951-0.684-4.266-1.141-5.969,0.036c-0.898,0.618-1.469,1.598-2.012,2.545c-1.256,2.189-2.506,4.38-3.762,6.569l3.633-12.228
			l2.605-0.552c3.982-0.841,8.119,0.349,11.047,3.178L201.736,36.86z"/>
	</g>
	<g>
		<path fill="#3E2771" d="M183.013,104.161c-0.115,0-0.23-0.017-0.344-0.052l-17.051-5.267c-0.609-0.189-0.955-0.835-0.77-1.446
			l18.9-62.752c0.605-2.012,2.264-3.51,4.328-3.908l0.236-0.046c4.764-0.92,9.654,0.582,13.08,4.019
			c1.611,1.616,2.203,3.977,1.545,6.162l-18.813,62.464c-0.09,0.297-0.293,0.546-0.568,0.69
			C183.39,104.115,183.201,104.161,183.013,104.161z M167.408,96.962l14.83,4.581l18.475-61.344c0.412-1.365,0.043-2.84-0.965-3.85
			c-2.879-2.888-6.988-4.15-10.992-3.377l0,0l-0.238,0.046c-1.211,0.234-2.186,1.114-2.543,2.296L167.408,96.962z M188.535,31.832
			h0.004H188.535z"/>
	</g>
	<g>
		<path fill="#3E2771" d="M174.488,101.334c-0.094,0-0.188-0.014-0.279-0.041c-0.514-0.154-0.803-0.695-0.648-1.207l20.465-67.831
			c0.154-0.512,0.695-0.802,1.207-0.647c0.512,0.154,0.803,0.695,0.646,1.207l-20.463,67.83
			C175.289,101.063,174.904,101.334,174.488,101.334z"/>
	</g>
	<g>
		<path fill="#FEBB12" d="M222.046,44.582l-3.9,8.444l-24.658,53.415l-8.061-3.87l-8.055-3.87l20.43-44.254l8.129-17.605
			l2.607-0.114c4.65-0.201,9.098,1.92,11.871,5.656L222.046,44.582z"/>
	</g>
	<g opacity="0.6">
		<path fill="#FFFFFF" d="M220.947,44.576l-1.789,3.157c-0.127-0.653-0.359-1.292-0.676-1.873c-0.996-1.817-2.691-3.143-4.443-4.251
			c-1.746-1.105-3.898-2.071-5.822-1.309c-1.016,0.399-1.791,1.226-2.533,2.026c-1.717,1.851-3.43,3.703-5.145,5.554l6.293-11.096
			l2.662,0.048c4.07,0.077,7.834,2.168,10.049,5.585L220.947,44.576z"/>
	</g>
	<g>
		<path fill="#3E2771" d="M193.486,107.604c-0.172,0-0.344-0.038-0.504-0.114l-16.111-7.741c-0.572-0.275-0.818-0.959-0.553-1.535
			l27.451-59.461c0.865-1.876,2.688-3.097,4.752-3.186c5.02-0.216,9.809,2.063,12.805,6.099l0.041,0.053
			c1.246,1.681,1.477,3.905,0.6,5.806l-27.426,59.405c-0.131,0.283-0.367,0.502-0.66,0.606
			C193.751,107.581,193.619,107.604,193.486,107.604z M178.91,98.147l14.016,6.734l26.93-58.332
			c0.521-1.128,0.385-2.448-0.355-3.446l-0.041-0.053c-2.535-3.416-6.588-5.345-10.838-5.163l0,0
			c-1.191,0.051-2.24,0.755-2.74,1.837L178.91,98.147z M208.57,36.727h0.004H208.57z"/>
	</g>
	<g>
		<path fill="#3E2771" d="M185.429,103.54c-0.137,0-0.273-0.028-0.404-0.09c-0.486-0.224-0.699-0.799-0.475-1.285l29.635-64.302
			c0.225-0.486,0.799-0.698,1.285-0.475c0.486,0.224,0.697,0.8,0.475,1.286l-29.635,64.303
			C186.146,103.33,185.796,103.54,185.429,103.54z"/>
	</g>
	<g>
		<path fill="#FEBB12" d="M166.558,30.98l-0.66,0.229c-1.375,0.478-2.375,1.675-2.6,3.114l-10.156,65.116l8.813,1.374l8.814,1.374
			l10.52-67.452l-2.449-1.839C175.32,30.253,170.714,29.535,166.558,30.98z"/>
	</g>
	<g opacity="0.6">
		<path fill="#FFFFFF" d="M180.289,34.001l-0.49,3.596c-0.359-0.56-0.811-1.067-1.322-1.489c-1.598-1.317-3.664-1.919-5.701-2.299
			c-2.031-0.378-4.389-0.476-5.893,0.945c-0.795,0.748-1.209,1.803-1.602,2.822c-0.906,2.356-1.809,4.711-2.715,7.067l1.727-12.64
			l2.488-0.942c3.809-1.439,8.08-0.894,11.404,1.457L180.289,34.001z"/>
	</g>
	<g>
		<path fill="#3E2771" d="M170.769,103.351c-0.061,0-0.119-0.005-0.18-0.015l-17.625-2.749c-0.635-0.099-1.068-0.693-0.971-1.327
			l10.111-64.829c0.32-2.043,1.73-3.736,3.686-4.415l0.293-0.102l0,0c4.588-1.595,9.646-0.806,13.531,2.111
			c1.807,1.356,2.715,3.587,2.365,5.82l-10.063,64.521c-0.049,0.306-0.215,0.578-0.463,0.761
			C171.253,103.272,171.013,103.351,170.769,103.351z M154.47,98.47l15.328,2.391l9.885-63.374c0.215-1.382-0.346-2.763-1.465-3.602
			c-3.264-2.451-7.516-3.115-11.371-1.774l-0.293,0.102c-1.141,0.396-1.965,1.384-2.15,2.577L154.47,98.47z"/>
	</g>
	<g>
		<path fill="#3E2771" d="M161.957,101.782c-0.049,0-0.098-0.004-0.146-0.011c-0.529-0.081-0.893-0.575-0.813-1.104l10.678-69.889
			c0.08-0.529,0.576-0.893,1.104-0.812c0.529,0.081,0.893,0.576,0.813,1.104l-10.678,69.889
			C162.841,101.438,162.427,101.782,161.957,101.782z"/>
	</g>
	<g opacity="0.2">
		<path fill="#3E2771" d="M218.146,53.026l-24.658,53.415l-8.061-3.87l-8.055-3.87l20.43-44.254
			c0.215-0.083,0.434-0.164,0.646-0.248c3.98,0.512,7.926-1.679,10.555-4.711c2.631-3.036,4.189-6.829,5.701-10.548
			c-1.371,3.391-2.742,6.779-4.111,10.169c-0.607,1.505-1.18,3.337-0.209,4.634c1.01,1.344,3.053,1.247,4.652,0.734
			C216.128,54.125,217.171,53.636,218.146,53.026z"/>
	</g>
	<g opacity="0.2">
		<path fill="#3E2771" d="M199.468,48.336l-17.875,56.05l-8.475-2.846l-8.473-2.846l14.811-46.438
			c0.203-0.109,0.408-0.216,0.611-0.326c4.014,0.017,7.656-2.644,9.893-5.979c2.234-3.337,3.314-7.294,4.354-11.171
			c-0.941,3.534-1.883,7.065-2.824,10.599c-0.416,1.568-0.758,3.458,0.365,4.625c1.168,1.208,3.184,0.86,4.707,0.154
			C197.603,49.676,198.576,49.062,199.468,48.336z"/>
	</g>
	<g opacity="0.2">
		<path fill="#3E2771" d="M179.146,48.861l-9.396,58.076l-8.803-1.563l-8.799-1.563l7.787-48.116
			c0.182-0.139,0.371-0.274,0.555-0.413c3.973-0.576,7.182-3.746,8.9-7.374c1.719-3.631,2.199-7.704,2.656-11.692
			c-0.408,3.634-0.82,7.266-1.229,10.9c-0.18,1.612-0.238,3.531,1.047,4.52c1.332,1.023,3.275,0.38,4.676-0.543
			C177.5,50.462,178.371,49.711,179.146,48.861z"/>
	</g>
	<g opacity="0.2">
		<path fill="#3E2771" d="M160.935,44.698l-0.393,58.831l-8.938-0.196l-8.936-0.197l0.326-48.741
			c0.162-0.165,0.326-0.328,0.488-0.493c3.836-1.177,6.521-4.802,7.666-8.65c1.141-3.851,0.994-7.949,0.834-11.961
			c0.152,3.654,0.303,7.306,0.455,10.96c0.068,1.621,0.305,3.527,1.727,4.307c1.473,0.807,3.293-0.126,4.537-1.253
			C159.552,46.532,160.298,45.656,160.935,44.698z"/>
	</g>
	<g>
		<path fill="#EE2F24" d="M217.986,66.464l-0.654,1.872l-13.156,37.55l-3.051,8.716l-4.766,13.603
			c-0.398,1.143-1.59,1.821-2.779,1.585l-8.23-1.651l-47.596-9.525c-1.154-0.232-1.977-1.255-1.961-2.434l0.236-15.005l0.102-6.564
			l0.039-2.526l0.615-39.896l0.012-0.624c0.023-1.507,1.395-2.635,2.879-2.36l3.588,0.659c1.137,0.206,1.961,1.178,2,2.329
			c0.303,9.533,9.584,18.469,22.322,20.813c12.742,2.345,24.596-2.708,28.266-11.513c0.445-1.058,1.561-1.67,2.697-1.465
			l17.582,3.236c0.391,0.07,0.744,0.232,1.039,0.457C217.974,64.333,218.351,65.43,217.986,66.464z"/>
	</g>
	<g>
		<polygon fill="#FFFFFF" points="193.287,105.84 203.234,108.505 200.865,115.136 190.798,112.886 		"/>
	</g>
	<g>
		<polygon fill="#FFFFFF" points="136.583,96.017 193.582,105.401 190.8,112.699 136.236,103.663 		"/>
	</g>
	<g opacity="0.6">
		<path fill="#FFFFFF" d="M217.984,66.466l-0.652,1.87c-0.295-0.329,0.182-1.416-0.234-1.538c-2.904-0.858-11.193-2.413-16.49-3.33
			c-1.25-0.217-2.52,0.323-3.199,1.395c-3.332,5.265-9.281,8.675-15.359,10.309c-18.549,4.986-36.713-6.794-39.158-20.356
			c-0.188-1.036-1.008-1.84-2.051-1.996c-1.371-0.207-2.867-0.383-4.055-0.631l0.01-0.624c0.023-1.507,1.398-2.633,2.883-2.362
			l3.588,0.66c1.133,0.208,1.961,1.179,1.998,2.329c0.301,9.533,9.584,18.47,22.322,20.815c12.74,2.342,24.594-2.711,28.268-11.513
			c0.441-1.059,1.561-1.672,2.693-1.464l17.582,3.233c0.391,0.07,0.744,0.235,1.039,0.459
			C217.974,64.334,218.349,65.43,217.984,66.466z"/>
	</g>
	<g>
		<path fill="#3E2771" d="M194.052,130.998c-0.232,0-0.467-0.022-0.701-0.069l-55.826-11.177c-1.703-0.342-2.92-1.852-2.895-3.589
			l1.004-64.617c0.016-1.061,0.496-2.056,1.316-2.729c0.822-0.674,1.893-0.95,2.938-0.758l3.59,0.66
			c1.652,0.304,2.893,1.749,2.945,3.434c0.137,4.334,2.314,8.7,6.133,12.294c3.926,3.695,9.338,6.328,15.238,7.414
			c5.902,1.085,11.898,0.55,16.881-1.508c4.848-2,8.436-5.306,10.105-9.308c0.648-1.556,2.32-2.466,3.975-2.161l17.582,3.233
			c1.037,0.19,1.934,0.823,2.463,1.735s0.633,2.005,0.281,3l-21.625,61.734C196.949,130.047,195.554,130.998,194.052,130.998z
			 M139.23,50.325c-0.293,0-0.57,0.1-0.805,0.291c-0.295,0.242-0.461,0.585-0.467,0.966l-1.002,64.617
			c-0.01,0.617,0.422,1.152,1.025,1.273l55.826,11.176c0.621,0.125,1.244-0.231,1.453-0.829l21.627-61.738
			c0.127-0.357,0.09-0.735-0.1-1.063s-0.5-0.546-0.873-0.614l-17.58-3.233c-0.596-0.109-1.174,0.208-1.408,0.77
			c-3.305,7.917-12.498,12.802-23.092,12.802c-2.111,0-4.275-0.193-6.461-0.595c-13.16-2.42-22.949-11.639-23.275-21.92
			c-0.02-0.61-0.447-1.112-1.043-1.221l-3.588-0.66C139.388,50.333,139.308,50.325,139.23,50.325z"/>
	</g>
	<g>
		<path fill="#3E2771" d="M194.052,130.805c-0.219,0-0.441-0.021-0.662-0.066l-8.232-1.646c-0.275-0.056-0.514-0.229-0.652-0.473
			s-0.166-0.537-0.07-0.802l23.514-66.217c0.158-0.448,0.621-0.714,1.088-0.628l7.266,1.336c0.98,0.181,1.83,0.779,2.33,1.642
			c0.5,0.863,0.598,1.897,0.268,2.837l-21.627,61.735C196.792,129.904,195.474,130.805,194.052,130.805z M186.634,127.411
			l7.135,1.428c0.717,0.143,1.436-0.268,1.676-0.955l21.627-61.737c0,0,0,0,0-0.001c0.143-0.406,0.1-0.852-0.115-1.224
			s-0.582-0.63-1.006-0.708l-6.453-1.187L186.634,127.411z"/>
	</g>
	<g opacity="0.2">
		<path fill="#3E2771" d="M217.984,66.466l-21.625,61.738c-0.398,1.146-1.588,1.823-2.777,1.585l-8.234-1.648l-47.594-9.526
			c-1.156-0.235-1.977-1.257-1.961-2.434l0.336-21.571c1.773,8.292,7.742,15.825,15.598,19.139
			c10.273,4.333,22.813,1.746,31.287-5.498c6.734-5.764,10.926-13.915,14.344-22.095c3.414-8.18,6.256-16.677,11.018-24.153
			c-5.316,13.874-10.182,27.919-14.594,42.106c-1.162,3.733,4.262,5.728,5.77,2.119c0.018-0.044,0.037-0.089,0.055-0.132
			c5.854-14.127,11.709-28.251,17.563-42.374C217.974,64.334,218.349,65.43,217.984,66.466z"/>
	</g>
	<g>
		<path fill="#3E2771" d="M157.828,87.81c0.35,1.298,1.111,2.338,2.582,2.645c3.684,0.769,5.346-3.218,6.029-5.859
			c0.328-1.253,0.436-2.205,0.436-2.205s-4.09,1.246-8.508-1.796C158.367,80.594,157.033,84.864,157.828,87.81z"/>
	</g>
	<g>
		<path fill="#F0689E" d="M157.828,87.81c0.35,1.298,1.111,2.338,2.582,2.645c3.684,0.769,5.346-3.218,6.029-5.859
			C164.265,84.745,161.042,85.427,157.828,87.81z"/>
	</g>
	<g>
		<path fill="#3E2771" d="M161.332,91.327c-0.352,0-0.711-0.037-1.082-0.115c-1.602-0.333-2.697-1.441-3.172-3.201l0,0
			c-0.842-3.127,0.492-7.465,0.549-7.648c0.074-0.235,0.254-0.421,0.486-0.501c0.234-0.081,0.49-0.046,0.693,0.094
			c4.063,2.797,7.805,1.704,7.844,1.692c0.248-0.076,0.52-0.021,0.721,0.146s0.303,0.424,0.273,0.684
			c-0.004,0.041-0.117,1.021-0.455,2.313C166.085,89.052,164.027,91.327,161.332,91.327z M158.847,81.812
			c-0.324,1.378-0.777,3.918-0.271,5.794v0.001c0.324,1.208,0.957,1.872,1.99,2.087c2.941,0.614,4.41-2.541,5.123-5.295
			c0.1-0.385,0.18-0.741,0.24-1.047C164.458,83.523,161.773,83.496,158.847,81.812z"/>
	</g>
	<g>
		<path fill="#FFFFFF" d="M215.564,99.206c-1.139,0.898-2.08,2.123-2.699,3.513c-0.389,0.875-0.656,1.86-0.502,2.789
			c0.154,0.928,0.824,1.759,1.676,1.777c0.016,1.828,1.041,3.477,2.447,4.313c1.408,0.835,3.145,0.914,4.75,0.452
			c1.73-0.498,3.359-1.623,4.498-3.209c1.137-1.586,1.76-3.632,1.621-5.59c-0.139-1.959-1.061-3.796-2.508-4.827
			c-1.354-0.965-3.076-1.196-4.723-0.963C218.476,97.695,216.808,98.225,215.564,99.206z"/>
	</g>
	<g>
		<path fill="#3E2771" d="M219.289,113.497c-1.229,0-2.391-0.303-3.395-0.899c-1.563-0.927-2.658-2.599-2.943-4.414
			c-0.873-0.431-1.545-1.351-1.734-2.485c-0.172-1.031,0.027-2.192,0.586-3.452c0.699-1.567,1.75-2.935,3.041-3.952l0,0
			c1.271-1.004,3.043-1.689,5.119-1.983c2.109-0.299,4.084,0.115,5.559,1.166c1.709,1.217,2.826,3.345,2.994,5.692
			c0.154,2.191-0.514,4.506-1.838,6.35c-1.268,1.767-3.086,3.063-5.121,3.648C220.791,113.388,220.027,113.497,219.289,113.497z
			 M216.285,100.119c-0.998,0.786-1.813,1.848-2.357,3.072c-0.371,0.837-0.512,1.551-0.416,2.125
			c0.078,0.48,0.385,0.804,0.553,0.807c0.627,0.015,1.131,0.524,1.137,1.152c0.012,1.348,0.75,2.652,1.879,3.322
			c1.037,0.615,2.436,0.737,3.834,0.335c1.533-0.441,2.91-1.426,3.875-2.77c0.996-1.39,1.523-3.194,1.406-4.83
			c-0.115-1.638-0.891-3.156-2.023-3.963c-0.986-0.704-2.365-0.973-3.883-0.758C218.619,98.85,217.234,99.37,216.285,100.119
			L216.285,100.119z"/>
	</g>
	<g>
		<circle fill="#FFFFFF" cx="220.583" cy="98.461" r="5.544"/>
	</g>
	<g>
		<path fill="#3E2771" d="M220.595,105.171c-0.543,0-1.092-0.067-1.633-0.202c-1.738-0.432-3.203-1.516-4.127-3.051
			c-0.922-1.535-1.193-3.338-0.76-5.076c0.893-3.588,4.539-5.781,8.127-4.888c3.588,0.893,5.781,4.538,4.889,8.127
			c-0.434,1.739-1.518,3.204-3.053,4.128C222.982,104.845,221.798,105.171,220.595,105.171z M220.576,94.078
			c-0.785,0-1.561,0.213-2.25,0.629c-1.004,0.604-1.711,1.561-1.994,2.696s-0.107,2.313,0.498,3.316
			c0.602,1.003,1.559,1.711,2.695,1.993c1.137,0.283,2.313,0.106,3.316-0.497c1.004-0.603,1.711-1.561,1.994-2.696
			c0.281-1.136,0.105-2.313-0.498-3.316c-0.604-1.003-1.561-1.71-2.695-1.993C221.289,94.122,220.931,94.078,220.576,94.078z"/>
	</g>
	<g>
		<path fill="#EE2F24" d="M219.462,98.976c-1.357-0.338-2.42-1.497-2.568-2.972c-0.443-4.447-3.676-8.651-7.861-10.222
			c-1.762-0.661-2.654-2.627-1.994-4.39c0.662-1.763,2.625-2.657,4.391-1.994c6.625,2.486,11.549,8.888,12.25,15.93
			c0.188,1.874-1.18,3.544-3.053,3.73C220.224,99.1,219.833,99.067,219.462,98.976z"/>
	</g>
	<g opacity="0.2">
		<path fill="#3E2771" d="M223.058,97.504c-0.402,0.039-0.793,0.009-1.164-0.084c-1.357-0.337-2.42-1.498-2.568-2.971
			c-0.443-4.448-3.676-8.652-7.861-10.222c-1.762-0.662-2.654-2.627-1.994-4.39c0.084-0.224,0.189-0.433,0.313-0.626
			c-1.207,0.16-2.287,0.963-2.744,2.182c-0.66,1.763,0.232,3.729,1.994,4.39c4.186,1.57,7.418,5.774,7.861,10.222
			c0.148,1.475,1.211,2.634,2.568,2.972c0.371,0.092,0.762,0.124,1.164,0.083c1.084-0.107,1.998-0.716,2.539-1.571
			C223.128,97.492,223.093,97.5,223.058,97.504z"/>
	</g>
	<g>
		<path fill="#3E2771" d="M220.283,100.239c-0.371,0-0.74-0.046-1.1-0.135l0,0c-1.869-0.466-3.254-2.067-3.445-3.984
			c-0.4-4.024-3.326-7.828-7.113-9.25c-2.359-0.886-3.559-3.526-2.674-5.887c0.43-1.144,1.277-2.051,2.389-2.557
			c1.111-0.505,2.354-0.547,3.498-0.117c7.031,2.638,12.254,9.431,13,16.903c0.248,2.509-1.588,4.753-4.098,5.003
			C220.587,100.231,220.435,100.239,220.283,100.239z M210.228,80.342c-0.316,0-0.631,0.067-0.928,0.202
			c-0.545,0.248-0.961,0.694-1.172,1.257c-0.436,1.16,0.152,2.458,1.313,2.893c4.584,1.72,8.125,6.324,8.611,11.196
			c0.094,0.942,0.773,1.729,1.691,1.958l0,0c0.25,0.062,0.508,0.08,0.766,0.054c1.232-0.122,2.137-1.225,2.014-2.458
			c-0.658-6.612-5.281-12.623-11.502-14.957C210.763,80.39,210.496,80.342,210.228,80.342z"/>
	</g>
	<g opacity="0.2">
		<path fill="#3E2771" d="M108.15,111.071c0,11.191-14.006,19.009-42.646,19.009c-23.305,0-42.648-5.998-42.648-19.009
			c0-2.835,2.53-5.167,7.352-5.237c-0.787,0.764-1.287,1.873-1.304,2.979c-0.038,2.559,5.324,13.712,41.373,13.712
			c21.854,0,34.702-6.422,37.833-12.053C108.136,110.669,108.15,110.87,108.15,111.071z"/>
	</g>
	<g opacity="0.2">
		<path fill="#3E2771" d="M99.169,77.459H30.311c-4.878,0-8.551-4.527-7.441-9.271c1.873-8.022,6.104-15.364,11.945-21.127
			c-4.873,7.333-4.285,15.053,0.291,19.629c10.381,10.381,55.564,7.391,62.004,3.615c5.9-3.459,4.982-9.626,4.541-14.352
			c2.258,3.787,3.953,7.912,4.961,12.234C107.72,72.933,104.048,77.459,99.169,77.459z"/>
	</g>
	<g>
		
			<ellipse transform="matrix(-0.9811 0.1937 -0.1937 -0.9811 117.1709 69.7044)" fill="#FFFFFF" cx="55.178" cy="40.58" rx="1.838" ry="0.67"/>
	</g>
	<g>
		<ellipse fill="#FFFFFF" cx="65.594" cy="39.223" rx="1.838" ry="0.67"/>
	</g>
	<g>
		
			<ellipse transform="matrix(-0.9687 -0.2483 0.2483 -0.9687 139.5234 98.7581)" fill="#FFFFFF" cx="75.99" cy="40.58" rx="1.838" ry="0.67"/>
	</g>
	<g>
		
			<ellipse transform="matrix(-0.9687 -0.2482 0.2482 -0.9687 129.4281 103.508)" fill="#FFFFFF" cx="71.239" cy="43.596" rx="1.838" ry="0.67"/>
	</g>
	<g>
		
			<ellipse transform="matrix(-0.9842 0.1771 -0.1771 -0.9842 128.1034 75.7572)" fill="#FFFFFF" cx="60.671" cy="43.595" rx="1.838" ry="0.67"/>
	</g>
	<g opacity="0.2">
		<path fill="#3E2771" d="M101.705,96.184c-1.496-0.047-2.934-0.66-4.24-1.454c-1.164,1.504-3.404,2.849-5.754,3.076
			c-2.349,0.225-4.774-0.667-6.508-2.399c-1.216,2.215-3.746,3.476-6.138,3.405c-2.389-0.074-4.641-1.271-6.59-2.766
			c-1.934,1.472-4.152,2.541-6.43,2.688c-2.279,0.144-4.598-0.634-6.4-2.148c-2.078,1.665-4.704,2.701-7.288,2.537
			c-2.583-0.164-5.08-1.525-6.742-3.673c-1.876,1.702-4.37,2.58-6.812,2.398c-2.439-0.181-4.802-1.417-6.447-3.377
			c-1.542,0.597-3.13,1.199-4.765,1.126c-3.169-0.141-4.55-4.483-2.737-7.398c0.412,1.081,1.156,2.037,2.147,2.64
			c1.914,1.16,4.571,0.905,6.226-0.596c1.085,2.158,3.82,2.915,6.236,2.861c2.413-0.054,4.832-0.68,7.217-0.302
			c2.835,0.445,5.509,2.292,8.337,1.813c1.87-0.315,3.542-1.626,5.432-1.525c1.839,0.098,3.481,1.535,5.314,1.344
			c1.833-0.194,3.197-1.963,5.03-2.178c2.335-0.275,4.252,2.044,6.598,2.212c2.601,0.188,4.774-2.285,7.379-2.292
			c1.977-0.004,3.729,1.42,5.706,1.49c2.131,0.074,3.98-1.427,6.051-1.943c2.768-0.69,5.764,0.413,8.512-0.355
			c0.629-0.177,1.221-0.459,1.75-0.823C107.054,93.315,104.99,96.287,101.705,96.184z"/>
	</g>
	<g opacity="0.2">
		<ellipse fill="#3E2771" cx="55.178" cy="163.216" rx="45.876" ry="6.055"/>
	</g>
	<g opacity="0.2">
		<ellipse fill="#3E2771" cx="169.944" cy="163.216" rx="46.157" ry="6.055"/>
	</g>
	<g>
		<g>
			<g>
				<g>
					<path fill="#3E2771" d="M151.042,72.264c-1.824-0.667-3.969,1.116-4.791,3.983c-0.822,2.868-0.01,5.733,1.814,6.4
						c1.824,0.668,3.969-1.116,4.791-3.983C153.679,75.797,152.867,72.932,151.042,72.264z"/>
				</g>
			</g>
		</g>
		<g>
			<g>
				<g>
					<path fill="#FFFFFF" d="M150.675,73.459c-0.645,0.122-1.092,1.056-0.998,2.087s0.691,1.769,1.338,1.647
						c0.646-0.122,1.094-1.056,1-2.087S151.322,73.338,150.675,73.459z"/>
				</g>
			</g>
		</g>
		<g>
			<g>
				<g>
					<path fill="#B199C4" d="M147.466,79.267c-0.322,0.156-0.463,0.698-0.311,1.21c0.15,0.513,0.537,0.802,0.861,0.646
						s0.465-0.697,0.313-1.21C148.177,79.4,147.792,79.111,147.466,79.267z"/>
				</g>
			</g>
		</g>
	</g>
	<g>
		<g>
			<g>
				<g>
					<path fill="#3E2771" d="M176.16,78.472c1.988-0.097,3.545,2.303,3.477,5.362c-0.07,3.059-1.738,5.617-3.729,5.715
						s-3.547-2.303-3.477-5.362C172.5,81.128,174.169,78.57,176.16,78.472z"/>
				</g>
			</g>
		</g>
		<g>
			<g>
				<g>
					<path fill="#FFFFFF" d="M176.154,79.755c0.596,0.316,0.748,1.367,0.342,2.349s-1.217,1.521-1.813,1.205
						c-0.596-0.315-0.748-1.367-0.342-2.348S175.558,79.439,176.154,79.755z"/>
				</g>
			</g>
		</g>
		<g>
			<g>
				<g>
					<path fill="#B199C4" d="M177.525,86.42c0.27,0.251,0.242,0.825-0.063,1.28s-0.771,0.621-1.043,0.37
						c-0.27-0.252-0.24-0.825,0.064-1.281C176.789,86.334,177.255,86.169,177.525,86.42z"/>
				</g>
			</g>
		</g>
	</g>
</g>
</svg>
