<?xml version="1.0" encoding="utf-8"?>
<!-- Generator: Adobe Illustrator 16.0.0, SVG Export Plug-In . SVG Version: 6.00 Build 0)  -->
<!DOCTYPE svg PUBLIC "-//W3C//DTD SVG 1.1//EN" "http://www.w3.org/Graphics/SVG/1.1/DTD/svg11.dtd">
<svg version="1.1" id="Layer_1" xmlns:xodm="http://www.corel.com/coreldraw/odm/2003"
	 xmlns="http://www.w3.org/2000/svg" xmlns:xlink="http://www.w3.org/1999/xlink" x="0px" y="0px" width="236.633px"
	 height="67.752px" viewBox="0 0 236.633 67.752" enable-background="new 0 0 236.633 67.752" xml:space="preserve">
<g id="Camada_x0020_1">
	<g id="logo-text-red.svg">
		<path fill="#DD0E0E" d="M48.776,0H12.521C5.606,0,0,5.605,0,12.52v36.256c0,6.915,5.606,12.52,12.521,12.52h36.255
			c6.915,0,12.521-5.604,12.521-12.52V12.52C61.297,5.605,55.691,0,48.776,0z"/>
		<path fill="#D7D7D7" d="M101.322,38.131c-0.066,2.707-0.823,5.354-2.201,7.687c-1.67,3.011-4.303,5.373-7.478,6.708
			c-3.139,1.218-6.467,1.877-9.834,1.948l-10.246,0.105l10.962,0.095c6.592,0,11.903-2.201,15.932-6.603
			c-3.65,4.647-9.372,6.968-17.165,6.961c-7.792-0.008-11.822-0.039-12.089-0.095c-0.579-0.548-1.158-1.116-1.737-1.695
			c-0.602-0.489-1.003-1.183-1.127-1.949c-0.137-2.391-0.158-5.56-0.053-9.477c0.098-5.743,0.147-8.934,0.147-9.572
			c0-1.369,0-3.423-0.179-6.15s-0.179-4.78-0.179-6.149c0-1.811,0-3.675,0.105-5.581l0.41,0.053
			c0.611,1.404,0.961,5.858,1.053,13.363c0.154-0.28,0.224-0.598,0.2-0.917c0-0.168-0.133-6.556-0.4-19.164
			c0.195,0.406,0.33,0.839,0.4,1.284c0,1.369,0.088,3.437,0.264,6.203c0.474,2.675,0.797,5.375,0.968,8.087
			c0,0.442,0,1.053-0.094,1.948c-0.095,0.895-0.105,1.506-0.105,1.948c0.474-0.306,0.716-0.568,0.716-0.769l-0.053-6.255
			c0.556,1.756,0.815,3.592,0.77,5.434l-0.18,6.149l0.716,17.26V42.48c0-0.579-0.063-1.443-0.19-2.612
			c-0.126-1.168-0.179-2.032-0.179-2.611v-1.737l0.411,0.253v-0.358c0-0.61,0-1.464-0.074-2.538
			c-0.073-1.073-0.073-1.885-0.073-2.432c-0.003-0.838,0.046-1.676,0.147-2.507l0.264-0.211c0.725,2.64,1.103,5.361,1.126,8.098
			c0,2.696,0,5.396,0,8.099c0,0.579,0,1.421-0.105,2.537c-0.105,1.116-0.105,1.938-0.105,2.475l10.098,0.517
			c3.599,0.339,7.202-0.585,10.194-2.612c1.468-1.021,2.652-2.397,3.44-4.002c0.789-1.604,1.155-3.384,1.067-5.17
			c0.089-1.991-0.489-3.955-1.643-5.581c-1.218-1.537-2.78-2.767-4.56-3.591c0-0.168,0-0.558-0.105-1.179
			c-0.057-0.391-0.089-0.785-0.095-1.18v-0.358l3.274-3.158c0.888-1.329,1.321-2.911,1.232-4.507
			c0.034-1.663-0.354-3.306-1.125-4.778c-0.772-1.473-1.902-2.728-3.287-3.646c-2.716-1.935-5.984-2.942-9.319-2.874
			c-1.271-0.09-2.537-0.245-3.791-0.464h1.485c3.045-0.058,6.078,0.412,8.961,1.391c2.111,0.767,3.924,2.183,5.181,4.043
			c1.327,1.84,2.042,4.05,2.042,6.318c-0.024,1.999-0.607,3.95-1.684,5.634v0.095c1.354-0.884,2.036-2.794,2.042-5.729
			c0.049-2.568-0.842-5.066-2.506-7.023c-1.7-1.937-3.923-3.341-6.402-4.043c-2.396-0.493-4.831-0.769-7.276-0.821
			c-3.686-0.246-5.718-0.484-6.097-0.717l0.611-0.053l-4.76-0.358c0.379-0.41,2.053-0.621,5.023-0.621c1.232,0,2.748,0,4.56,0.157
			l3.021,0.106l-9.477-0.411l-0.158-0.211c0.371-0.175,0.771-0.278,1.179-0.305h7.782c4.39-0.194,8.721,1.068,12.32,3.591
			c1.73,1.251,3.123,2.912,4.054,4.835c0.929,1.923,1.367,4.046,1.274,6.18c-0.011,2.197-0.537,4.361-1.537,6.318
			c-0.111-0.058-0.233-0.09-0.357-0.095c-0.306,0-0.643,0.231-1.053,0.716c-0.411,0.484-0.748,0.947-0.822,1.053
			c1.871,1.393,3.513,3.069,4.864,4.971C100.855,33.439,101.408,35.775,101.322,38.131L101.322,38.131z M68.847,13.226
			c-0.059,0.356-0.144,0.708-0.252,1.053l-0.621-8.098C68.625,8.47,68.919,10.846,68.847,13.226L68.847,13.226z M69.363,20.503
			c-0.105-0.369-0.263-0.938-0.463-1.686l0.2-0.516c0.168,0.716,0.263,1.053,0.263,1.127V20.503L69.363,20.503z M70.848,51.041
			v-0.106c0.019-0.129-0.002-0.261-0.058-0.379c-0.057-0.118-0.146-0.217-0.258-0.284v0.769L70.848,51.041L70.848,51.041z
			 M71.511,51.041l-0.411-0.159l-0.158,0.159H71.511z M85.348,50.83h-0.368c-0.44,0.045-0.884,0.063-1.327,0.053
			c-0.442,0-3.549-0.186-9.319-0.559c-0.242,0-0.589,0-1.053,0l-0.916,0.053l-0.126-0.01v0.558l8.423,0.264L85.348,50.83
			L85.348,50.83z M92.003,37.056c0,3.349-1.366,5.518-4.096,6.508c-0.721,0.291-1.48,0.479-2.253,0.558l-1.833-0.073
			c2.791-0.273,4.728-0.779,5.781-1.537c1.369-0.99,2.106-2.759,2.106-5.328c-0.001-0.434-0.072-0.864-0.21-1.274
			c-0.231,2.725-0.691,4.584-1.379,5.581c-0.917,1.433-2.686,2.106-5.265,2.106c-1.233,0-1.98-0.169-2.254-0.506
			c-0.417-0.075-0.828-0.177-1.232-0.305l-1.379,0.61l0.105,0.517c-0.292-0.273-0.659-0.453-1.053-0.517v-0.306l-0.306-0.305
			l-0.568,0.357l0.21,0.821l-0.252-0.263L78.02,43.86l-0.306-0.358v-0.411l0.306,0.053v-0.146c-0.004-0.242-0.04-0.483-0.105-0.716
			l-0.2,0.052v-0.568c0.058,0.001,0.115-0.012,0.167-0.034c0.053-0.024,0.1-0.059,0.139-0.101c0.039-0.042,0.068-0.093,0.086-0.148
			c0.018-0.054,0.024-0.112,0.018-0.169c-0.009-0.081-0.046-0.155-0.105-0.211c-0.443,0-0.663,0.211-0.663,0.611
			c0.01,0.217,0.042,0.432,0.094,0.642c0.05,0.177,0.085,0.355,0.105,0.538c0.025,0.118,0.025,0.239,0,0.357
			c-0.35-0.251-0.588-0.629-0.663-1.053c-0.076-0.455-0.094-0.919-0.053-1.38c0.073-0.82,0.105-1.252,0.105-1.284
			c-0.034-0.766-0.136-1.527-0.306-2.274c-0.173-0.733-0.279-1.48-0.315-2.232c0-2.633,0.838-3.949,2.516-3.949h1.537h1.538
			c-0.306,0-0.895-0.137-1.748-0.315c-0.555-0.117-1.119-0.185-1.685-0.2c-0.507,0.025-0.986,0.244-1.337,0.61
			c-0.305,0.379-0.632,0.759-0.969,1.127v2.928c0.038,0.525,0.123,1.048,0.253,1.559c0.15,0.541,0.204,1.104,0.157,1.664h-0.463
			c0.019,0.552,0.085,1.102,0.201,1.643c-0.041,0.31-0.145,0.606-0.306,0.873c-0.853-0.242-1.274-1.748-1.274-4.518
			c0.012-0.353,0.044-0.703,0.094-1.053c0.058-0.348,0.093-0.7,0.105-1.053c-0.023-0.321-0.083-0.64-0.179-0.948
			c-0.092-0.291-0.153-0.591-0.179-0.895c0-0.79,1.053-1.927,3.274-3.433c0.211,0.077,2.194,0.386,5.95,0.927
			c2.003,0.208,3.94,0.837,5.686,1.843c0.825,0.588,1.488,1.376,1.925,2.289c0.439,0.913,0.638,1.922,0.582,2.934L92.003,37.056z
			 M89.444,18.249c0,4.139-2.106,6.203-6.202,6.203c-0.612-0.024-1.216-0.146-1.791-0.358c1.67,0.076,3.342-0.08,4.97-0.464
			c0.803-0.22,1.498-0.729,1.95-1.428c0.453-0.698,0.632-1.54,0.504-2.362v-0.917c-0.162,1.419-0.749,2.755-1.684,3.833
			c-1.108,0.857-2.502,1.261-3.896,1.127c-0.462-0.014-0.923-0.056-1.379-0.126l-1.39-0.179c-0.291-0.33-0.65-0.593-1.053-0.769
			c-0.204,0.11-0.392,0.249-0.558,0.41c0.143,0.227,0.262,0.466,0.358,0.716c-0.074-0.095-0.221-0.358-0.463-0.769l-0.569,0.264
			c0.208,0.134,0.37,0.329,0.463,0.558l-0.253-0.252v0.252l-0.61-0.558v-0.316l0.716-0.253c-0.105-0.168-0.242-0.41-0.411-0.716
			v0.516l-0.305-0.315v-0.305h0.411c-0.109-0.146-0.165-0.325-0.159-0.506c0.042-0.332,0.108-0.659,0.201-0.979l-0.664,0.053
			c-0.067,0.107-0.104,0.231-0.105,0.358c0.014,0.199,0.049,0.397,0.105,0.589c0.058,0.174,0.093,0.354,0.105,0.538h-0.231
			c-0.442,0-0.685-0.338-0.716-1.127c0.074,1.264,0.106,0.736,0.106-1.59c-0.036-0.631-0.138-1.256-0.306-1.864
			c-0.171-0.594-0.276-1.204-0.316-1.821c0.056-0.53,0.252-1.035,0.569-1.464c0.379-0.591,0.716-0.896,1.053-0.896
			c0.406,0.014,0.811,0.056,1.211,0.127c0.396,0.078,0.797,0.125,1.2,0.137c0.638,0.004,1.274-0.067,1.896-0.211
			c-2.328-0.337-3.559-0.516-3.686-0.516c-0.578,0.062-1.115,0.326-1.516,0.748c-0.23,0.163-0.425,0.373-0.57,0.616
			c-0.145,0.243-0.238,0.514-0.272,0.795c-0.058,1.042,0.081,2.085,0.411,3.074v0.253l-0.463,0.053
			c0.008,0.233,0.032,0.466,0.073,0.695c0.044,0.244,0.069,0.49,0.074,0.737v0.41l-0.316,0.105
			c-0.779-0.621-1.169-1.759-1.169-3.433c0-1.675,1.053-3.37,3.222-5.381l0.927-0.253c0.911,0.32,1.853,0.544,2.812,0.663
			c1.505,0.2,2.464,0.358,2.875,0.463c1.358,0.301,2.581,1.041,3.474,2.106c0.903,1.03,1.392,2.358,1.369,3.729V18.249z
			 M79.198,42.079v-1.189h-0.316v0.2c0,0.168-0.137,0.347-0.4,0.516c-0.264,0.168-0.411,0.337-0.411,0.517
			C78.439,42.02,78.825,42.006,79.198,42.079z M79.609,42.385v-0.263l-1.232,0.158l0.201,0.357
			C78.928,42.586,79.273,42.501,79.609,42.385L79.609,42.385z M79.756,22.251c-0.184-0.62-0.322-1.254-0.411-1.896l-0.147,0.663
			c0.09,0.119,0.142,0.263,0.147,0.411c0,0.337-0.221,0.495-0.664,0.463l0.463,0.2c-0.179,0.217-0.369,0.424-0.568,0.621
			l0.263,0.095C79.177,22.678,79.486,22.49,79.756,22.251z M88.18,37.825c0.036-0.371-0.015-0.744-0.148-1.091
			c-0.133-0.348-0.346-0.659-0.62-0.91c-0.61-0.41-1.211-0.821-1.79-1.231c-1.224-0.139-2.454-0.205-3.686-0.2
			c-0.141,0.004-0.281-0.026-0.408-0.089s-0.236-0.155-0.318-0.27c-0.188-0.225-0.357-0.464-0.506-0.716v1.326
			c1.354-0.007,2.707,0.096,4.044,0.306l0.105,0.21l-4.212-0.263v5.991h-1.053c0.032,0.375,0.032,0.752,0,1.127h0.505
			c0.17-0.026,0.343-0.044,0.516-0.053c0.042-0.007,0.085-0.005,0.125,0.009c0.041,0.013,0.078,0.034,0.107,0.064
			c0.03,0.03,0.052,0.067,0.065,0.107c0.013,0.041,0.015,0.084,0.008,0.125c-0.168,0.274-0.548,0.38-1.127,0.306v0.358h0.264
			c0.602,0.006,1.183-0.212,1.632-0.611c1.2,0,2.338,0,3.433-0.158h-0.463c-0.786,0.036-1.574-0.013-2.349-0.147l-0.158-0.263
			c0.765-0.333,1.58-0.539,2.411-0.61c0.874-0.073,1.725-0.316,2.506-0.717c0.396-0.297,0.707-0.694,0.899-1.152
			c0.193-0.456,0.26-0.957,0.196-1.448H88.18L88.18,37.825z M79.967,32.465c-0.108,0.142-0.197,0.298-0.263,0.464l0.158-0.053
			L79.967,32.465L79.967,32.465z M85.442,19.039c-0.221-0.743-0.579-1.439-1.053-2.054c-0.45-0.078-0.897-0.181-1.337-0.306h-2.506
			v0.358c1.102-0.063,2.206,0.045,3.275,0.316l0.158,0.147l-0.306,0.052c-0.438-0.188-0.914-0.274-1.39-0.252
			c-0.271,0.002-0.542,0.02-0.811,0.053h-0.811v2.042c0-0.273,0.105,0.39,0.306,2.001h1.947c0.77-0.221,1.523-0.495,2.253-0.821
			c0.188-0.479,0.281-0.99,0.274-1.506V19.039z M85.084,31.791h-2.77c0.348,0,1.053,0.063,2.265,0.2L85.084,31.791z M84.873,14.563
			c-0.482-0.241-1.002-0.397-1.537-0.463h-0.874c0.4,0.018,0.797,0.088,1.179,0.211C84.224,14.416,84.635,14.501,84.873,14.563z
			 M85.926,16.975c-0.063-0.274-0.41-0.58-1.053-0.927H84.41c0.497,0.264,0.978,0.556,1.443,0.874L85.926,16.975L85.926,16.975z
			 M87.411,34.392c-0.425-0.396-0.933-0.693-1.484-0.874h-1.053c0.559,0.168,1.369,0.442,2.464,0.821L87.411,34.392z M87.927,19.177
			v-0.4c-0.016-0.406-0.058-0.811-0.126-1.211c-0.087-0.324-0.237-0.629-0.442-0.896c0.308,0.782,0.475,1.613,0.496,2.453
			L87.927,19.177z M94.488,30.137c-1.812-1.264-2.939-1.896-3.38-1.896h-0.105L94.488,30.137z M92.592,27.726l-0.622-0.2v0.306
			l0.358,0.104L92.592,27.726L92.592,27.726z M98.32,34.287c-0.323-1.378-0.957-2.663-1.853-3.759
			c-0.896-1.095-2.031-1.971-3.318-2.56l-0.463,0.306c1.333,0.564,2.531,1.405,3.518,2.464c0.958,0.979,1.661,2.18,2.042,3.496
			L98.32,34.287L98.32,34.287z M95.614,24.915h-2.57c0.547,0.411,1.053,0.801,1.642,1.18c0.336-0.373,0.622-0.787,0.854-1.232
			L95.614,24.915z M100.32,38.341c-0.642,4.16-1.863,7.318-3.632,9.478c1.241-1.226,2.158-2.742,2.664-4.412
			c0.59-1.642,0.892-3.373,0.895-5.118L100.32,38.341L100.32,38.341z M98.889,39.204v-2.526c-0.105,2.179-0.43,4.341-0.969,6.454
			c0.406-1.3,0.705-2.631,0.895-3.979L98.889,39.204z"/>
		<path fill="#D7D7D7" d="M131.606,52.884l-1.8,1.79h-6.604l-1.127-1.147c-1.474,1.368-3.654,2.053-6.561,2.053
			c-4.366,0-7.798-1.365-10.298-4.096c-2.387-2.633-3.58-6.118-3.58-10.457v-8.909c0-3.755,0-6.711,0-8.866l0.159-0.463
			c-0.379,0.273-0.583,2.306-0.611,6.097v-5.791l1.4-1.38c0.374-0.418,0.894-0.675,1.454-0.716c0.474,0,1.243,0,2.295-0.074
			c1.053-0.073,1.854-0.084,2.391-0.084c0.753-0.052,1.501,0.169,2.106,0.621l1.632,1.632c0,1,0,2.296,0,3.896v12.109
			c0,3.756,1.316,5.638,3.948,5.645c2.623,0,3.928-1.717,3.886-5.129l-0.147-13.215c-0.06-0.613,0.047-1.231,0.306-1.791
			c0.283,0.861,0.438,1.759,0.463,2.665c0.063,0.947,0.137,1.905,0.2,2.864c0.073-0.442,0.157-1.591,0.264-3.433
			c0.095-2.054,0.126-3.159,0.095-3.433c0.274-0.38,0.686-0.885,1.232-1.538h5.58c-0.458,0.185-0.939,0.305-1.432,0.358
			c-0.38,0-0.875,0-1.485,0h-1.485c-0.958,0-1.568,0.252-1.842,0.769v0.157l0.451-0.516c4.002-0.273,6.396-0.376,7.182-0.306
			c-1.27,0.213-2.555,0.314-3.844,0.306c-1.086-0.028-2.171,0.074-3.232,0.306l-0.41,0.41c0,0.348-0.084,0.854-0.146,1.537
			c0-0.273-0.105-0.695-0.211-1.273c-0.162,0.281-0.268,0.593-0.307,0.916c0.049,1.349,0.193,2.693,0.433,4.022
			c0.247,1.328,0.395,2.673,0.442,4.022c0,0.579,0,1.569-0.053,2.97c-0.053,1.401-0.084,2.254,0,2.97v0.399l0.517-0.61v-7.065
			l0.505,6.603c0,6.697-2.426,10.046-7.276,10.046c-1.028,0.052-2.052-0.161-2.974-0.619c-0.921-0.457-1.71-1.144-2.292-1.992
			c-1.116-1.774-1.637-3.858-1.485-5.95l0.305-13.932h-1.221c-0.185,0.561-0.274,1.147-0.263,1.737
			c0.05,1.56,0.223,3.112,0.516,4.645c0.287,1.529,0.46,3.077,0.516,4.633c-0.124,2.592,0.168,5.188,0.864,7.687
			c0.384,1.222,1.172,2.276,2.233,2.991c1.061,0.716,2.334,1.05,3.61,0.947c0.583-0.036,1.164-0.114,1.738-0.231
			c0.895-0.147,1.39-0.231,1.484-0.231l-0.094,0.264h0.094c0.453,0,1.054-0.41,1.948-1.232c0.638-0.526,1.146-1.192,1.484-1.948
			c0.345-1.024,0.808-2.699,1.39-5.022c0.149,0.429,0.217,0.883,0.201,1.337c0.119,2.214-0.637,4.385-2.106,6.045
			c-0.777,0.771-1.707,1.368-2.73,1.757c-1.022,0.389-2.116,0.558-3.209,0.496c-3.528,0-5.844-1.559-6.971-4.665
			c-0.625-1.734-0.934-4.756-0.927-9.066c0-0.652,0-1.653,0-3.022c0-1.368,0-2.39,0-3.074c-0.044-0.72-0.193-1.43-0.442-2.106
			c-0.2-0.713-0.502-1.394-0.895-2.021c-0.337,0-0.854,0-1.538-0.105l-0.252,15.269c-0.093,1.896,0.096,3.794,0.559,5.634
			c0.707,2.095,2.172,3.849,4.106,4.918c1.857,1.164,4.001,1.788,6.192,1.8c1.32,0.078,2.639-0.168,3.844-0.716
			c1.021-0.801,1.948-1.712,2.769-2.717l1.738,0.453c-0.021,0.104-0.021,0.213,0.002,0.316c0.023,0.104,0.066,0.204,0.129,0.291
			c0.062,0.087,0.141,0.159,0.232,0.215c0.092,0.055,0.193,0.09,0.301,0.104c-0.028,0.214-0.102,0.418-0.217,0.6
			s-0.267,0.337-0.447,0.453v0.316c1.643,0.126,3.159,0.2,4.611,0.2l0.822-20.008l-0.359,20.008h0.148
			c0.232-0.815,0.357-1.658,0.369-2.506c0.094-1.475,0.146-2.411,0.146-2.822l0.105-16.448c0-0.611,0.105-1.538,0.201-2.759h0.104
			c0.207-1.149,0.293-2.318,0.254-3.485c-0.02-0.351-0.02-0.702,0-1.054c0.353,1.109,0.51,2.271,0.463,3.433c0,1.327,0,3.16,0,5.371
			c0,2.737-0.053,4.054-0.053,3.949l0.264-9.278l0.201-0.094c0.079,0.268,0.133,0.543,0.158,0.821l-0.117,25.546L131.606,52.884z
			 M102.965,45.66c-0.357-3.626-0.53-7.267-0.516-10.91v7.066C102.512,43.109,102.684,44.395,102.965,45.66z M103.786,44.743
			l-0.252-5.791v3.159L103.786,44.743z M112.252,23.272c-0.587-0.899-1.373-1.652-2.296-2.201h-2.875l-0.916,0.2
			c3.159,0.442,5.097,1.116,5.886,2.001c0.074,2.391,0.085,5.36,0,8.919L112.252,23.272z M121.834,50.271
			c-1.568,1.917-3.99,2.833-7.275,2.77c0.232,0,0.464,0.018,0.694,0.053c0.214,0.012,0.429,0.012,0.643,0
			c2.222,0,3.823-0.452,4.813-1.379c0.315-0.385,0.669-0.737,1.053-1.053L121.834,50.271L121.834,50.271z M127.101,52.378
			c-0.333-0.059-0.66-0.144-0.979-0.253h-1.948l0.104,0.158c0.766,0.087,1.537,0.118,2.307,0.095H127.101L127.101,52.378z"/>
		<path fill="#D7D7D7" d="M150.973,23.219c-0.065,1.339-0.292,2.664-0.675,3.949c-0.47,1.874-0.996,3.001-1.579,3.38
			c-1.356,0.02-2.668,0.499-3.717,1.358c-0.787,1.072-1.16,2.393-1.053,3.717c0,0.475-0.085,1.433-0.148,2.864
			c-0.094,0.938-0.13,1.881-0.104,2.822l0.253,8.351c0.137,1.544-0.281,3.086-1.18,4.349l-0.095,0.358
			c0.312-0.189,0.601-0.412,0.864-0.663c0.379-0.348,0.568-0.579,0.568-0.716l0.095-9.836l0.104,9.836
			c-0.614,1.034-1.499,1.883-2.559,2.453l-0.104-0.147h-6.655c-0.688-0.459-1.324-0.992-1.896-1.59
			c-0.445-0.682-0.646-1.495-0.568-2.306l0.158-10.299c0-1.053-0.053-2.727-0.158-4.917s-0.147-3.823-0.147-4.918
			c-0.063-1.214-0.001-2.432,0.189-3.633l0.253,0.2c0.563,2.771,0.824,5.596,0.779,8.424c0.094-0.226,0.13-0.473,0.105-0.716
			c0-1.169-0.063-3.159-0.201-6.045c-0.178-2.569-0.241-4.581-0.209-6.044c0.366,0.542,0.547,1.188,0.516,1.843
			c0,1.263-0.053,1.905-0.053,1.947c0,0.306,0.221,1.518,0.559,3.634c0.221,1.199,0.344,2.413,0.368,3.633v1.39l0.315-0.306
			c0.098-0.262,0.144-0.541,0.138-0.821c0-0.379-0.032-0.926-0.095-1.643c-0.074-0.716-0.105-1.263-0.105-1.643h0.189
			c0.245,0.836,0.387,1.699,0.422,2.569c0,0.748,0,1.706,0,2.864v2.611c0,1.054,0.073,2.875,0.21,5.539
			c0.095,2.317,0.138,4.149,0.095,5.477l0.105,0.053l0.053-0.053c0-0.337,0.053-0.938,0.053-1.791c0-0.853-0.053-2.001-0.158-3.644
			s-0.148-2.864-0.148-3.686l0.307,0.053c0-0.379,0-0.927-0.053-1.664c-0.053-0.736-0.053-1.284-0.053-1.663
			c-0.035-0.646,0.068-1.293,0.305-1.896c0.794,1.635,1.068,6.434,0.822,14.395c1.043,0.188,2.1,0.289,3.158,0.306l0.253-13.521
			c0.032-1.625,0.24-3.242,0.621-4.822c0.351-1.34,1.13-2.527,2.222-3.381c0.993-0.936,2.301-1.465,3.664-1.484h0.307
			c0.41,0,0.621-0.769,0.621-2.307c0-0.989-0.075-1.979-0.105-2.969h-0.569c-0.716,0.013-1.426,0.134-2.106,0.357
			c-0.699,0.178-1.314,0.595-1.737,1.18v1.337L143,25.295v0.41h-0.674c0,0-0.421-0.084-1.168-0.264l-0.053-0.41
			c-0.76-0.4-1.148-0.61-1.18-0.61c0.368-0.548,0.748-1.054,1.126-1.538l-0.874-0.147h0.506c0.368,0,0.611,0,0.716-0.21
			c-1.36-0.083-2.716-0.256-4.054-0.517h0.41c-0.684,0-1.685-0.126-3.021-0.263l0.463-0.358h6.255
			c-0.758-0.165-1.53-0.25-2.306-0.253c-1.338,0-2.106,0-2.412-0.053v-0.157c0.532-0.166,1.086-0.252,1.643-0.253h3.076l0.969,0.969
			c1.158-1.222,3.231-1.843,6.201-1.843c0.591,0.461,1.154,0.956,1.686,1.484C150.752,21.829,150.987,22.515,150.973,23.219
			L150.973,23.219z M134.472,27.063l-0.231,0.663l-0.537-5.265C134.17,23.953,134.429,25.501,134.472,27.063L134.472,27.063z
			 M141.643,54.885c-0.54,0.128-1.09,0.212-1.643,0.252l-4.654-0.252H141.643z M142.979,43.564v-6.098
			C142.834,39.497,142.834,41.534,142.979,43.564z M147.846,21.987h-0.621c-0.703,0.038-1.395,0.194-2.043,0.464
			c-0.68,0.188-1.296,0.551-1.791,1.053c1.004-0.735,2.193-1.177,3.434-1.273C147.178,22.217,147.524,22.135,147.846,21.987
			L147.846,21.987z M147.688,28.032h-0.463c-0.877,0.129-1.725,0.406-2.508,0.821C145.676,28.475,146.672,28.201,147.688,28.032z"/>
		<path fill="#D7D7D7" d="M181.246,50.366c0.076,2.376-0.371,4.739-1.311,6.923s-2.346,4.134-4.122,5.714
			c-3.565,3.197-8.229,4.895-13.016,4.738c-3.29-0.002-6.489-1.082-9.108-3.075c-2.722-1.942-4.824-4.63-6.055-7.739
			c0.307-0.588,0.658-1.151,1.053-1.685c0.212-0.258,0.481-0.463,0.786-0.596c0.306-0.135,0.64-0.193,0.973-0.173l4.844,0.305
			l-0.2-0.199c-2.523-1.764-4.649-4.034-6.244-6.666c-1.452-2.726-2.178-5.779-2.106-8.866c-0.023-2.272,0.413-4.526,1.284-6.626
			c0.871-2.099,2.156-4,3.781-5.589c1.559-1.65,3.441-2.959,5.532-3.845c2.089-0.887,4.339-1.331,6.608-1.306
			c3.002-0.003,5.926,0.949,8.351,2.718c0.38-0.063,0.601-0.358,0.675-0.874h4.707c-1.411,0.302-2.856,0.415-4.297,0.337
			l-0.516,0.242v0.095l6.561-0.211c-2.057,0.141-4.314,0.415-6.771,0.822c0.993,0.78,1.77,1.803,2.254,2.969
			c-0.838,0.642-1.822,1.064-2.864,1.232l-0.105-0.158l-0.306,0.158l-0.199-0.158l-0.82,0.158l0.252-0.611l0.199,0.358h0.211
			c0.411,0,0.611-0.516,0.611-1.537c0-0.579-0.611-1.18-1.843-1.801l-0.147-0.095v0.095c-0.778-0.369-1.609-0.611-2.465-0.717
			l0.306,0.211c-0.76-0.158-1.531-0.26-2.306-0.306c-3.979-0.146-7.882,1.123-11.015,3.581c-1.534,1.252-2.759,2.844-3.575,4.649
			c-0.817,1.805-1.203,3.774-1.133,5.754c-0.065,3.938,1.279,7.771,3.791,10.805c1.186,1.547,2.713,2.796,4.463,3.649
			c1.752,0.854,3.678,1.288,5.625,1.268c1.296-0.014,2.58-0.256,3.791-0.716c1.24-0.322,2.328-1.066,3.076-2.106
			c-1.874,1.706-4.334,2.623-6.867,2.559c-1.895,0.006-3.766-0.423-5.471-1.251s-3.197-2.036-4.363-3.529
			c-2.479-2.896-3.824-6.592-3.792-10.404c-0.142-2.54,0.521-5.061,1.896-7.202l0.105,0.464c0.784-1.396,1.807-2.644,3.022-3.686
			c1.671-1.58,2.987-2.281,3.948-2.106l-0.158,0.264c-5.117,3.166-7.68,7.378-7.686,12.636c0,5.616,2.221,9.579,6.665,11.889
			c1.902,1.124,4.041,1.791,6.245,1.948c2.801,0,5.316-1.369,7.529-4.096l3.285,1.432v0.358c0,0.105-0.243,1.053-0.717,2.77
			c-0.549,2.217-1.889,4.157-3.77,5.454c-1.908,1.294-4.172,1.96-6.477,1.906c-1.396,0.028-2.779-0.253-4.055-0.822
			c-1.203-0.631-2.366-1.334-3.484-2.105l-4.707-0.105l-0.053,0.105c1.146,2.271,3.023,4.093,5.328,5.17
			c2.209,1.234,4.695,1.887,7.224,1.896c3.458-0.016,6.794-1.271,9.403-3.539c2.707-2.105,4.512-5.162,5.045-8.551
			c0.375-2.905,0.561-5.831,0.558-8.761c0.042-2.906,0.077-5.826,0.105-8.761l-0.147,15.163c-0.014,1.948-0.436,3.872-1.234,5.648
			c-0.8,1.777-1.961,3.368-3.41,4.671c-2.821,2.764-6.622,4.301-10.572,4.275c-1.965-0.025-3.909-0.406-5.738-1.127h-0.211
			c1.945,1.021,4.123,1.516,6.318,1.433c3.443-0.002,6.772-1.239,9.383-3.486c2.714-2.135,4.581-5.166,5.265-8.55
			c0.181-0.896,0.3-1.805,0.358-2.718c0-3.453,0.073-6.897,0.105-10.351c-0.01-3.458,0.177-6.914,0.559-10.352h0.105
			c0.189-0.771,0.257-1.566,0.199-2.358c-0.031-0.938,0.004-1.879,0.105-2.812c0.302,1.308,0.439,2.648,0.41,3.99
			c0,1.537,0,3.612,0,6.202v4.56l0.253-10.814h0.2c0.08,0.25,0.133,0.508,0.158,0.769l-0.074,20.798H181.246z M175.15,39.446
			c0.041,1.386-0.191,2.766-0.686,4.063c-0.493,1.295-1.236,2.48-2.189,3.488c-0.957,0.999-2.113,1.785-3.395,2.307
			c-1.281,0.521-2.658,0.765-4.04,0.716c-1.338,0.053-2.67-0.184-3.907-0.692s-2.352-1.278-3.265-2.257
			c-1.838-2.039-2.812-4.712-2.717-7.455c-0.027-1.87,0.509-3.704,1.538-5.266c1.052-1.535,2.641-2.621,4.453-3.043
			c-1.677,0.732-3.164,1.838-4.349,3.233c-1.042,1.497-1.563,3.295-1.485,5.117c-0.082,1.604,0.283,3.201,1.053,4.612
			c0,0-0.146-0.674-0.432-1.927c-0.23-0.844-0.379-1.708-0.441-2.58c-0.001-2.072,0.693-4.086,1.969-5.718
			c0.547-0.793,1.279-1.442,2.131-1.892c0.854-0.449,1.803-0.686,2.766-0.688l1.947,0.2c0.463-0.153,0.947-0.222,1.434-0.2
			c0.471-0.024,0.943,0.043,1.39,0.2h-1.694c-1.636,0.055-3.234,0.495-4.666,1.285h0.105c0.639-0.278,1.311-0.47,2.001-0.569
			l0.558,0.053l-0.2,0.253c-3.653,1.105-5.485,3.327-5.485,6.687c-0.038,1.9,0.66,3.741,1.947,5.139
			c0.584,0.728,1.326,1.313,2.168,1.714c0.844,0.401,1.764,0.607,2.697,0.603c1.297-0.057,2.557-0.44,3.664-1.116
			c1.348-0.748,2.044-1.548,2.106-2.422c-1.537,2.106-3.349,3.159-5.433,3.159c-0.412-0.025-0.822-0.093-1.222-0.2h0.61
			c0.873,0.069,1.749-0.05,2.572-0.348s1.572-0.768,2.199-1.379c0.626-0.611,1.115-1.35,1.432-2.165
			c0.318-0.816,0.457-1.689,0.41-2.563c0.072-1.361-0.297-2.71-1.053-3.844c-0.934-1.027-2.043-1.88-3.275-2.517
			c0.168-0.231,0.337-0.358,0.516-0.358c0.661,0.048,1.303,0.243,1.879,0.57c0.576,0.328,1.07,0.78,1.449,1.324v-0.095
			c-0.691-0.838-1.566-1.506-2.56-1.947c-1.011-0.391-2.077-0.618-3.159-0.675c0.085-0.106,0.194-0.19,0.32-0.244
			c0.125-0.053,0.261-0.074,0.396-0.061c0.582,0.012,1.162,0.064,1.738,0.157c0.895,0.106,1.474,0.147,1.747,0.147l-0.358-0.147
			c0.155-0.004,0.311,0.026,0.451,0.088c0.143,0.062,0.269,0.154,0.371,0.271l-0.464-0.105c0.467,0.162,0.896,0.418,1.258,0.753
			s0.651,0.743,0.849,1.194l0.263-0.463c-0.07-0.273-0.702-0.853-1.896-1.737c1.359,0.169,2.527,1.274,3.475,3.327
			c0.752,1.552,1.154,3.248,1.181,4.971c-0.086,1.674-0.714,3.274-1.79,4.56c-1.005,1.32-2.257,2.433-3.686,3.274l-0.053,0.159
			c1.688-0.645,3.138-1.79,4.154-3.283c1.017-1.492,1.551-3.262,1.531-5.067c-0.023-0.538-0.108-1.071-0.252-1.59
			c-0.148-0.501-0.236-1.018-0.264-1.538v-0.306l0.211,0.053l-1.4-3.148h0.252c0.654,0,1.285,0.842,1.896,2.517
			c0.42,1.096,0.666,2.251,0.727,3.422v-0.011V39.446z M165.209,58.253h-0.199l-1.285,0.054c-2.051,0.014-4.03-0.759-5.528-2.159
			c0.675,0.738,1.499,1.326,2.417,1.724s1.91,0.596,2.912,0.583L165.209,58.253L165.209,58.253z M171.917,25.463
			c-1.706-1.875-4.3-2.813-7.782-2.813c-2,0.032-3.977,0.413-5.844,1.127l0.157,0.053c1.772-0.65,3.641-1.007,5.528-1.054
			c2.886-0.089,5.705,0.869,7.94,2.696V25.463z M168.758,24.693c-1.594-0.583-3.273-0.893-4.971-0.916
			c-1.568,0.108-3.128,0.33-4.664,0.663l0.768,0.253c0.709-0.027,1.412-0.111,2.107-0.253c0.693-0.141,1.398-0.225,2.105-0.253
			c1.121,0.017,2.236,0.154,3.328,0.411l-0.105-0.211c0.479,0.075,0.954,0.181,1.421,0.316L168.758,24.693z M167.42,56.147
			c-1.244,0.386-2.54,0.578-3.844,0.568c-1.295-0.044-2.58-0.234-3.832-0.568c1.258,0.477,2.592,0.724,3.938,0.727
			c1.283,0.083,2.567-0.163,3.729-0.716L167.42,56.147z M168.041,56.463c-1.212,0.392-2.467,0.633-3.738,0.717
			c-1.184,0.017-2.365-0.054-3.538-0.211c0.88,0.42,1.839,0.649,2.812,0.674c1.57-0.004,3.113-0.406,4.486-1.169L168.041,56.463
			L168.041,56.463z M172.033,54.978c-0.617,1.108-1.478,2.063-2.515,2.791c-1.038,0.729-2.226,1.215-3.478,1.421h0.358
			c1.179-0.128,2.285-0.63,3.159-1.432c1.021-0.722,1.865-1.67,2.463-2.77L172.033,54.978z"/>
		<path fill="#D7D7D7" d="M217.154,38.235c0.08,0.94-0.113,1.885-0.559,2.718c-0.623,0.643-1.291,1.241-2,1.789
			c0.789,1.158,1.18,1.759,1.18,1.791c0,0.652-0.889,1.951-2.664,3.896c-1.11,1.264-2.326,2.43-3.634,3.486
			c-2.974,2.081-6.522,3.186-10.151,3.159c-3.521,0.05-6.965-1.023-9.834-3.064c-2.865-2.067-5.1-4.889-6.455-8.15
			c-0.718-2.128-1.029-4.371-0.916-6.613c-0.096-2.425,0.34-4.842,1.277-7.081c0.936-2.239,2.352-4.246,4.145-5.882
			c3.68-3.211,8.438-4.911,13.32-4.759c-0.305-0.02-0.61-0.02-0.915,0c-5.435,0-9.737,1.656-12.911,4.971
			c-2.982,3.074-4.795,7.36-5.434,12.857v-0.675c-0.075-2.295,0.347-4.579,1.234-6.695c0.891-2.118,2.225-4.019,3.915-5.571
			c1.618-1.675,3.556-3.004,5.7-3.909c2.145-0.904,4.451-1.366,6.777-1.356c2.461-0.08,4.908,0.379,7.172,1.343
			c2.265,0.964,4.291,2.41,5.939,4.238c3.259,3.73,4.979,8.56,4.812,13.511L217.154,38.235z M185.342,46.269
			c-1.77-3.15-2.637-6.729-2.505-10.341l-0.052,3.159c0.084,1.303,0.379,2.583,0.873,3.791
			C183.981,44.113,184.555,45.266,185.342,46.269L185.342,46.269z M212.953,37.92c-0.031-2.784-0.811-5.507-2.254-7.888
			c-1.268-2.503-3.395-4.465-5.99-5.528c-2.018-0.643-4.13-0.938-6.245-0.874c-1.794-0.041-3.572,0.315-5.212,1.044
			c-1.638,0.728-3.096,1.811-4.266,3.168c-2.377,2.697-3.654,6.188-3.58,9.783c-0.021,1.899,0.342,3.784,1.066,5.541
			c0.723,1.757,1.793,3.351,3.146,4.684c1.301,1.373,2.871,2.462,4.612,3.198c1.742,0.735,3.617,1.103,5.508,1.078
			c2.641,0.019,5.232-0.712,7.476-2.106c2.29-1.406,4.194-3.36,5.539-5.687l-6.665-0.158c-1.104,0.721-2.25,1.371-3.434,1.948
			c-1.222,0.302-2.48,0.423-3.738,0.357c-0.574-0.001-1.145-0.104-1.684-0.305c0.735-0.003,1.471,0.046,2.199,0.147
			c3.075,0,5.28-0.836,6.613-2.506c-0.958,0.516-1.896,1.053-2.801,1.536c-1.064,0.553-2.256,0.817-3.453,0.769
			c-1.129,0.062-2.256-0.138-3.295-0.581c-1.038-0.443-1.961-1.12-2.697-1.978h0.252c-0.664-0.658-1.219-1.418-1.643-2.253
			c-0.232,0.066-0.473,0.102-0.715,0.105h-0.359v-0.054l0.98-0.252c-0.117-0.203-0.189-0.43-0.211-0.663
			c-0.016-0.102-0.016-0.204,0-0.306c0.273,0.095,0.494,0.41,0.663,0.916c3.559-0.169,5.466-0.253,5.739-0.253
			c0.316-0.011,0.631,0.043,0.926,0.158l-6.454,0.358l0.105,0.2h0.306c0.715,0,1.631,0,2.758,0c1.475-0.074,2.391-0.105,2.77-0.105
			l3.285-0.505c2.049-0.309,4.121-0.432,6.193-0.369l4.358,0.157l-0.621-0.516c-0.919-0.063-3.173-0.063-6.76,0l0.21-0.147
			c2.865-0.348,4.707-0.517,5.528-0.517c0.567-0.007,1.134,0.028,1.694,0.105c0.041-0.279,0.066-0.561,0.075-0.842
			C212.953,38.425,212.953,38.13,212.953,37.92L212.953,37.92z M214.291,37.056c-0.146-3.937-1.775-7.672-4.561-10.456
			c-2.785-2.785-6.52-4.414-10.456-4.561c-1.856-0.041-3.7,0.302-5.419,1.007c-1.717,0.705-3.271,1.757-4.564,3.09
			c2.486-2.458,5.849-3.687,10.089-3.687c2.29-0.007,4.547,0.539,6.581,1.591c2.031,1.053,3.781,2.581,5.097,4.454
			c0.618,0.81,1.168,1.669,1.644,2.569c0.537,0.837,0.896,1.776,1.053,2.759l-0.053,0.211l-0.2-0.105v0.252
			c0.015,0.594,0.075,1.186,0.179,1.77c0.098,0.55,0.158,1.105,0.179,1.664c0.003,0.398-0.051,0.795-0.157,1.179h0.516
			C214.279,38.216,214.303,37.635,214.291,37.056L214.291,37.056z M207.73,33.002c-0.092,0.136-0.213,0.248-0.356,0.329
			c-0.142,0.08-0.302,0.126-0.464,0.134c-0.035,0.308-0.035,0.619,0,0.927c-0.111,0.004-0.219-0.034-0.303-0.106
			s-0.138-0.173-0.15-0.283c-0.074-0.253-0.189-0.379-0.369-0.379l-0.148,0.358c-0.277-0.216-0.52-0.476-0.715-0.769
			c-0.295,0.195-0.605,0.368-0.927,0.517h0.211l-0.264,0.315l-0.357-0.105l0.411-0.158h-2.106c0.063,0.348,0.138,0.517,0.2,0.517
			s0.717-0.053,1.537-0.158l0.105,0.211c-1.004,0.26-2.041,0.362-3.075,0.305c-0.708,0.022-1.411,0.1-2.106,0.231
			c-0.675,0.125-1.356,0.203-2.043,0.232c-0.652-0.022-1.303-0.082-1.948-0.18c-0.661-0.104-1.331-0.163-2.001-0.178
			c-0.563-0.018-1.127,0.015-1.684,0.095c1.216,0.22,2.449,0.34,3.686,0.357c0.576,0,1.429-0.042,2.559-0.126
			c1.127-0.084,1.969-0.126,2.517-0.126l-0.104,0.252c0.23,0.013,0.463,0.013,0.695,0c0.226-0.034,0.455-0.052,0.684-0.052
			c0.291,0.005,0.576,0.093,0.822,0.252c-0.274,0.548-1.159,0.854-2.665,0.927c0.927-0.073-0.063-0.105-2.969-0.105
			c-0.313,0.014-0.623,0.056-0.927,0.127c-0.301,0.069-0.609,0.111-0.916,0.126c-0.579-0.023-1.153-0.102-1.717-0.231
			c-0.77-0.147-1.327-0.242-1.664-0.273l-1.895-2.569c0.821-1.858,2.108-3.473,3.738-4.687c1.688-1.039,3.652-1.546,5.633-1.453
			c4.093,0,6.842,1.552,8.244,4.654c-1.979-2.969-4.488-4.454-7.528-4.454c-0.565-0.028-1.134,0.025-1.685,0.158
			c1.837,0.089,3.657,0.396,5.424,0.916c1.666,0.854,2.975,2.272,3.695,4.001h0.559c-0.178,0.186-0.334,0.391-0.465,0.611
			C207.184,33.149,207.463,33.095,207.73,33.002L207.73,33.002z M192.461,31.159c-0.309,0.174-0.572,0.419-0.768,0.716h0.315
			L192.461,31.159z M195.232,30.39h-0.307c-0.326,0.107-0.627,0.282-0.883,0.513c-0.256,0.229-0.46,0.511-0.602,0.824
			c0.525-0.542,1.129-1.003,1.791-1.369V30.39L195.232,30.39z M205.888,41.71l-12.446,0.21c1.186,2.106,3.355,3.132,6.508,3.075
			h0.506c-3.244,0-5.427-0.94-6.551-2.821v-0.095l2.57,1.506c0.887,0.506,1.895,0.765,2.916,0.748
			c1.639,0.099,3.256-0.396,4.56-1.391c-1.487,0.035-2.976-0.032-4.454-0.2l-0.158-0.158c0.99-0.341,2.027-0.529,3.075-0.558
			c1.053,0,2.106-0.084,3.159-0.158L205.888,41.71L205.888,41.71z M203.887,31.569c-1.268-0.913-2.787-1.413-4.348-1.432
			c-0.932,0.003-1.85,0.204-2.697,0.59c-0.863,0.39-1.727,0.778-2.58,1.147h5.74L203.887,31.569L203.887,31.569z M213.217,44.332
			h-0.305c-1.367,2.495-3.412,4.554-5.898,5.939c-2.41,1.534-5.244,2.271-8.097,2.105c0.461,0.064,0.925,0.1,1.39,0.105
			c2.703-0.026,5.34-0.847,7.582-2.358C210.144,48.696,211.981,46.698,213.217,44.332L213.217,44.332z M204.919,32.696l-0.105-0.253
			h-0.305c-0.418,0.016-0.831,0.083-1.232,0.201c-0.685,0.137-1.053,0.221-1.231,0.263h1.053
			C203.203,32.907,203.866,32.834,204.919,32.696L204.919,32.696z M205.836,40.489c-0.959,0.095-1.675,0.146-2.106,0.146
			c0.341-0.123,0.694-0.207,1.053-0.252L205.836,40.489z M212.859,43.922h-2.98c0.59,0,1.443,0.053,2.57,0.147L212.859,43.922
			L212.859,43.922z"/>
		<path fill="#D7D7D7" d="M236.625,23.219c-0.061,1.338-0.283,2.664-0.663,3.949c-0.484,1.874-1.054,3.001-1.59,3.38
			c-1.356,0.02-2.667,0.499-3.718,1.358c-0.786,1.072-1.16,2.393-1.053,3.717c0,0.475-0.095,1.433-0.158,2.864
			c-0.095,0.938-0.13,1.881-0.104,2.822l0.263,8.351c0.133,1.543-0.285,3.084-1.18,4.349l-0.105,0.358
			c0.314-0.188,0.608-0.411,0.875-0.663c0.367-0.348,0.558-0.579,0.558-0.716l0.104-9.836l0.105,9.836
			c-0.617,1.035-1.506,1.884-2.568,2.453l-0.095-0.147h-6.667c-0.688-0.459-1.322-0.992-1.895-1.59
			c-0.447-0.681-0.645-1.495-0.559-2.306l0.148-10.299c0-1.053-0.053-2.727-0.148-4.917c-0.095-2.191-0.158-3.823-0.158-4.918
			c-0.07-1.215-0.004-2.434,0.201-3.633l0.24,0.199c0.563,2.772,0.828,5.597,0.791,8.425c0.082-0.229,0.114-0.474,0.094-0.717
			c0-1.169-0.063-3.159-0.199-6.045c-0.168-2.568-0.242-4.58-0.2-6.044c0.354,0.547,0.531,1.191,0.505,1.843
			c0,1.264-0.053,1.906-0.053,1.948c0,0.306,0.223,1.517,0.568,3.633c0.219,1.199,0.339,2.414,0.359,3.633v1.391l0.389-0.274
			c0.092-0.264,0.139-0.542,0.137-0.82c0-0.38,0-0.927-0.105-1.643c-0.104-0.717-0.104-1.264-0.104-1.644h0.189
			c0.25,0.836,0.395,1.698,0.433,2.569c0,0.748,0,1.706,0,2.864v2.612c0,1.053,0.063,2.874,0.199,5.539
			c0.105,2.316,0.138,4.148,0.105,5.476l0.105,0.053v-0.053c0.029-0.597,0.029-1.194,0-1.791c0-0.789,0-2-0.148-3.643
			c-0.146-1.643-0.158-2.864-0.158-3.687l0.307,0.053c0-0.379,0-0.926,0-1.663s0-1.285,0-1.664
			c-0.041-0.646,0.064-1.294,0.305-1.896c0.779,1.636,1.053,6.434,0.822,14.396c1.043,0.188,2.098,0.29,3.158,0.305l0.264-13.521
			c0.023-1.625,0.229-3.243,0.61-4.822c0.349-1.344,1.134-2.532,2.233-3.381c0.992-0.936,2.3-1.465,3.664-1.484h0.305
			c0.41,0,0.611-0.769,0.611-2.306c0-0.99-0.063-1.979-0.105-2.97h-0.559c-0.715,0.015-1.426,0.136-2.105,0.358
			c-0.699,0.177-1.315,0.595-1.738,1.18v1.337l-0.41-0.053v0.41h-0.663c0,0-0.433-0.084-1.179-0.263l-0.054-0.41
			c-0.747-0.4-1.147-0.611-1.179-0.611c0.378-0.547,0.746-1.053,1.127-1.537l-0.875-0.147h0.57c0.378,0,0.609,0,0.715-0.21
			c-1.357-0.084-2.708-0.256-4.043-0.517h0.41c-0.685,0-1.695-0.126-3.022-0.263l0.453-0.358h6.255
			c-0.758-0.165-1.531-0.25-2.307-0.253c-1.326,0-2.105,0-2.411-0.053v-0.158c0.528-0.166,1.079-0.252,1.632-0.252h3.076
			l0.979,0.968c1.158-1.221,3.223-1.842,6.191-1.842c0.591,0.465,1.156,0.96,1.695,1.484c0.389,0.557,0.575,1.229,0.527,1.906
			V23.219z M220.124,27.063l-0.231,0.663l-0.536-5.265C219.828,23.951,220.088,25.501,220.124,27.063L220.124,27.063z
			 M227.306,54.885c-0.54,0.128-1.089,0.212-1.643,0.252l-4.665-0.252H227.306L227.306,54.885z M228.633,43.564v-6.098
			C228.486,39.497,228.486,41.534,228.633,43.564z M233.498,21.987h-0.611c-0.705,0.036-1.4,0.193-2.053,0.464
			c-0.678,0.19-1.295,0.554-1.791,1.053c1.006-0.733,2.193-1.175,3.434-1.273C232.83,22.218,233.177,22.135,233.498,21.987
			L233.498,21.987z M233.35,28.032h-0.463c-0.879,0.127-1.731,0.404-2.516,0.821C231.333,28.477,232.331,28.203,233.35,28.032z"/>
		<path fill="#D7D7D7" d="M50.124,53.273l-2.77,2.716c-1.145-0.025-2.291,0.01-3.433,0.105c-1.632,0.095-2.759,0.147-3.38,0.147
			c-0.459,0.006-0.914-0.093-1.33-0.288c-0.416-0.194-0.782-0.481-1.071-0.838c-0.477,0.18-0.992,0.234-1.495,0.157l-0.095-0.211
			c0.182-0.336,0.386-0.659,0.611-0.968c-0.2-0.169-0.495-0.443-0.874-0.821V36.982h-3.012c-3.763,1.98-6.325,2.97-7.687,2.97
			c0.07,2.738,0.07,6.869,0,12.395v0.874c-0.948,0.884-1.896,1.842-2.812,2.874c-0.58,0-1.432,0-2.538,0
			c-1.105,0-1.906,0.053-2.379,0.053c-1.632,0.118-3.264-0.218-4.718-0.969c-1.264-0.853-1.896-2.433-1.896-4.718l-0.105-28.432
			c0.036-0.473,0.142-0.938,0.315-1.379c0.639,1.053,1.046,8.396,1.221,22.029c0.126-0.199,0.199-0.428,0.211-0.663l-0.611-30.896
			c0.038-0.36,0.122-0.715,0.252-1.054c0.245,1.353,0.365,2.724,0.358,4.097c0,2.496,0.252,6.318,0.663,11.584
			c0.351,4.914,0.523,8.736,0.516,11.467c0,1.58,0,3.097-0.105,4.56l0.21-0.452l0.358-0.369c0.063-0.126,0.094-3.692,0.094-10.698
			c0.804,6.651,1.054,13.357,0.748,20.05h0.463c-0.077-2.549,0.025-5.101,0.305-7.635c0.246,0.379,0.537,2.889,0.874,7.529
			c0.406,0.078,0.819,0.113,1.232,0.105c0.479,0.002,0.958-0.034,1.432-0.105c0-3.588,0.07-8.965,0.21-16.133
			c0.958-1.028,1.985-1.988,3.075-2.874l6.761-0.148l8.351,0.201c0.327,0.019,0.652,0.071,0.968,0.157
			c0.57,0.432,1.086,0.931,1.538,1.485c0.503,0.461,0.936,0.992,1.285,1.579l-0.21,12.637c2.411-5.04,3.687-10.547,3.738-16.133
			l0.516-21.809h-5.528c0,8.74-0.137,14.378-0.411,16.912c-0.346,0.303-0.673,0.627-0.979,0.969
			c-0.696,0.103-1.402,0.138-2.106,0.105L29,26.79c-1.201,0-2.38,0-3.538,0c-1.17,0.034-2.326-0.27-3.328-0.874l-0.053-0.464
			l0.411-12.499l0.105,13.067c0.442-11.372,0.663-17.146,0.663-17.322c0-0.778-0.211-1.242-0.621-1.379l-1.58-0.211
			c0.582-0.013,1.162-0.063,1.738-0.147c-1.401-0.118-2.809-0.137-4.212-0.052c-1.412,0.093-2.829-0.009-4.212-0.306
			c0.727-0.484,3.622-0.579,8.719-0.306L22.83,5.982c-1.187-0.033-2.369-0.153-3.538-0.358c0.945-0.202,1.909-0.305,2.875-0.306
			h0.768c0.852,0.913,1.63,1.892,2.328,2.928c0.271,1.313,0.342,2.657,0.21,3.991l-0.358,11.425h11.52V7.867
			c0.59-0.622,1.179-1.222,1.801-1.822c0.285-0.3,0.628-0.539,1.008-0.704c0.38-0.165,0.789-0.251,1.204-0.255
			c1.143,0.041,2.277,0.214,3.38,0.517c1.102,0.345,2.233,0.584,3.38,0.716c0.653,0.368,1.295,0.77,1.948,1.18
			c0.248,0.286,0.431,0.622,0.536,0.985c0.105,0.364,0.131,0.746,0.075,1.121c0,1.403-0.137,7.501-0.411,18.29
			c-0.168,7.414-0.252,13.524-0.252,18.333c0,2.437,0,4.777,0,7.024l-0.21,0.357l0.674-0.663l0.253-4.507L50.124,53.273
			L50.124,53.273z M13.9,19.102c-0.03,0.597-0.1,1.191-0.21,1.779c-0.21-1.678-0.348-3.861-0.411-6.55
			c-0.104-3.56-0.172-5.729-0.2-6.508c0.624,3.726,0.895,7.502,0.811,11.278H13.9L13.9,19.102z M14.111,27.4
			c0.007,1.182,0.073,2.362,0.2,3.538l0.105-1.748c0,0-0.095-0.558-0.316-1.79H14.111z M15.743,51.841l-0.506-0.516v0.516H15.743z
			 M19.692,52.304v-0.316h-2.001L19.692,52.304z M40.489,34.402c-0.319-0.533-0.717-1.017-1.179-1.432
			c-0.538-0.358-1.176-0.535-1.822-0.506H23.419l-0.716,0.147c-0.602,0.433-1.137,0.951-1.59,1.538l-0.095,0.674l0.2,12.752
			c0-8.102,0.102-12.56,0.306-13.373c0.242-0.958,1.264-1.433,3.075-1.433c1.538,0,3.833,0.067,6.887,0.2
			c3.054,0.134,5.353,0.204,6.897,0.211c1.095,0,1.643,0.702,1.643,2.105l0.147,11.636L40.489,34.402L40.489,34.402z M22.588,51.819
			h-1.211l-0.105,0.664l0.306,0.358L22.588,51.819L22.588,51.819z M40.005,9.193c-0.07,3.756-0.26,9.372-0.569,16.849
			c-0.143,0.21-0.334,0.384-0.558,0.505h-1.263c-0.379,0-5.177-0.102-14.395-0.306c2.439,0.373,4.903,0.563,7.371,0.569h7.487
			c1.189,0,1.8-0.442,1.842-1.337L40.005,9.193z M24.735,23.64v-4.148l-0.463-5.022v9.172L24.735,23.64L24.735,23.64z
			 M37.436,37.014H36.54v3.38c0.048-1.185,0.342-2.347,0.864-3.412L37.436,37.014L37.436,37.014z M37.436,53.715
			c-0.192-0.108-0.356-0.26-0.481-0.443c-0.124-0.183-0.205-0.391-0.235-0.609c-0.063-0.464-0.116-0.916-0.147-1.358v1.896
			l0.716,0.717L37.436,53.715L37.436,53.715z M45.175,55.357c-0.938,0.268-1.896,0.454-2.865,0.559h-1.053
			c-0.665,0.015-1.33-0.021-1.99-0.105l-0.769-0.716h0.305c0,0.168,0.526,0.273,1.485,0.306c0.684,0,1.643,0,2.864,0L45.175,55.357z
			 M46.712,52.735l-1.053-0.146l-0.105,0.146H46.712z M47.375,19.134l-0.253,25.715h-0.158l0.264-25.715H47.375z M48.502,50.724
			V34.065c-0.137,0.916-0.2,1.433-0.2,1.527L48.502,50.724z"/>
	</g>
	<path fill="#FF760C" d="M11.247,50.461l-0.105-28.432c0.036-0.473,0.142-0.938,0.315-1.379c0.639,1.053,1.046,8.396,1.221,22.029
		c0.126-0.199,0.199-0.428,0.211-0.663l-0.611-30.896c0.038-0.36,0.122-0.715,0.252-1.054c0.245,1.353,0.365,2.724,0.358,4.097
		c0,2.496,0.252,6.318,0.663,11.583c0.351,4.915,0.523,8.737,0.516,11.468c0,1.58,0,3.097-0.105,4.56l0.21-0.452l0.358-0.369
		c0.063-0.126,0.094-3.692,0.094-10.698c0.804,6.651,1.054,13.357,0.748,20.05h0.463c-0.077-2.549,0.025-5.101,0.305-7.635
		c0.246,0.379,0.537,2.889,0.874,7.529c0.406,0.078,0.819,0.113,1.232,0.105c0.479,0.001,0.958-0.034,1.432-0.105
		c0-3.588,0.07-8.965,0.21-16.133c0.958-1.028,1.985-1.988,3.075-2.875l6.761-0.147l8.351,0.201
		c0.327,0.019,0.652,0.071,0.968,0.157c0.57,0.432,1.086,0.931,1.538,1.485c0.503,0.461,0.936,0.992,1.285,1.579l-0.21,12.637
		c2.411-5.04,3.687-10.547,3.738-16.133l0.516-21.809h-5.528c0,8.74-0.137,14.378-0.411,16.912
		c-0.346,0.303-0.673,0.627-0.979,0.969c-0.696,0.103-1.402,0.138-2.106,0.105L29,26.79c-1.201,0-2.38,0-3.538,0
		c-1.17,0.034-2.326-0.27-3.328-0.874l-0.053-0.464l0.411-12.499l0.105,13.067c0.442-11.372,0.663-17.146,0.663-17.322
		c0-0.778-0.211-1.242-0.621-1.379l-1.58-0.211c0.582-0.013,1.162-0.063,1.738-0.147c-1.401-0.118-2.809-0.137-4.212-0.052
		c-1.412,0.093-2.829-0.009-4.212-0.306c0.727-0.484,3.622-0.579,8.719-0.306L22.83,5.982c-1.187-0.033-2.369-0.153-3.538-0.358
		c0.945-0.202,1.909-0.305,2.875-0.306h0.768c0.852,0.913,1.63,1.892,2.328,2.928c0.271,1.313,0.342,2.657,0.21,3.991l-0.358,11.425
		h11.52V7.867c0.59-0.622,1.179-1.222,1.801-1.822c0.285-0.3,0.628-0.539,1.008-0.704c0.38-0.165,0.789-0.251,1.204-0.255
		c1.143,0.041,2.277,0.214,3.38,0.517c1.102,0.345,2.233,0.584,3.38,0.716c0.653,0.368,1.295,0.77,1.948,1.18
		c0.248,0.286,0.431,0.622,0.536,0.985c0.105,0.364,0.131,0.746,0.075,1.121c0,1.403-0.137,7.501-0.411,18.29
		c-0.168,7.414-0.252,13.524-0.252,18.333c0,2.437,0,4.777,0,7.024l-0.21,0.357l0.674-0.663l0.253-4.507l0.105,4.834l-2.77,2.716
		c-1.145-0.025-2.291,0.01-3.433,0.105c-1.632,0.095-2.758,0.147-3.38,0.147c-0.459,0.006-0.914-0.093-1.33-0.288
		c-0.416-0.194-0.783-0.481-1.071-0.838c-0.477,0.18-0.992,0.234-1.495,0.157l-0.095-0.211c0.182-0.336,0.386-0.659,0.611-0.968
		c-0.2-0.169-0.495-0.443-0.874-0.821V36.982h-3.012c-3.763,1.98-6.325,2.97-7.687,2.97c0.07,2.738,0.07,6.869,0,12.395v0.874
		c-0.948,0.884-1.896,1.842-2.812,2.874c-0.58,0-1.432,0-2.538,0c-1.106,0-1.906,0.053-2.38,0.053
		c-1.632,0.118-3.264-0.218-4.718-0.969C11.878,54.326,11.246,52.746,11.247,50.461L11.247,50.461z M13.689,20.882
		c-0.21-1.678-0.348-3.861-0.411-6.55c-0.104-3.56-0.172-5.729-0.2-6.508c0.624,3.726,0.895,7.502,0.811,11.278h0.01
		C13.871,19.699,13.8,20.294,13.689,20.882L13.689,20.882z M14.111,27.462c-0.004-0.021-0.007-0.041-0.011-0.062h0.011
		C14.111,27.421,14.111,27.441,14.111,27.462z M14.311,30.938c-0.124-1.155-0.191-2.315-0.199-3.477
		c0.213,1.188,0.305,1.729,0.305,1.729L14.311,30.938z M48.776,0.001H12.521C5.605,0.001,0,5.606,0,12.521v36.255
		c0,6.915,5.606,12.521,12.521,12.521h36.255c6.915,0,12.521-5.605,12.521-12.521V12.521C61.296,5.606,55.691,0.001,48.776,0.001z"
		/>
	<polygon fill="#FF760C" points="24.272,14.469 24.272,23.64 24.736,23.64 24.736,19.491 	"/>
	<path fill="#FF760C" d="M37.615,26.547c-0.379,0-5.177-0.102-14.395-0.306c2.439,0.373,4.903,0.563,7.371,0.569h7.487
		c1.189,0,1.8-0.442,1.842-1.337l0.084-16.28c-0.07,3.756-0.26,9.372-0.569,16.849c-0.143,0.21-0.334,0.384-0.558,0.505H37.615z"/>
	<polygon fill="#FF760C" points="15.743,51.841 15.237,51.325 15.237,51.841 	"/>
	<polygon fill="#FF760C" points="19.692,51.988 17.691,51.988 19.692,52.304 	"/>
	<polygon fill="#FF760C" points="21.376,51.819 21.271,52.482 21.577,52.841 22.588,51.819 	"/>
	<path fill="#FF760C" d="M21.219,47.576c0-8.102,0.102-12.56,0.306-13.373c0.242-0.959,1.264-1.433,3.075-1.433
		c1.538,0,3.833,0.066,6.887,0.2c3.054,0.133,5.353,0.203,6.897,0.21c1.095,0,1.643,0.702,1.643,2.106l0.147,11.636l0.316-12.521
		c-0.319-0.534-0.717-1.017-1.179-1.433c-0.538-0.358-1.176-0.535-1.822-0.505H23.42l-0.716,0.147
		c-0.602,0.433-1.137,0.95-1.59,1.537l-0.095,0.674L21.219,47.576L21.219,47.576z"/>
	<path fill="#FF760C" d="M36.54,37.014v3.38c0.047-1.173,0.336-2.324,0.849-3.38H36.54z"/>
	<path fill="#FF760C" d="M48.303,35.593l0.2,15.132V34.065C48.366,34.981,48.303,35.498,48.303,35.593z"/>
	<path fill="#FF760C" d="M36.955,53.271c-0.124-0.183-0.205-0.391-0.235-0.609c-0.063-0.464-0.116-0.916-0.147-1.358v1.896
		l0.716,0.717l0.147-0.2C37.243,53.606,37.079,53.455,36.955,53.271L36.955,53.271z"/>
</g>
</svg>
